<?xml version="1.0" encoding="UTF-8"?>
<svg id="Layer_2" data-name="Layer 2" xmlns="http://www.w3.org/2000/svg" viewBox="0 0 357.74 85.66">
  <defs>
    <style>
      .cls-1 {
        fill: #d2e9e3;
      }

      .cls-1, .cls-2, .cls-3, .cls-4 {
        stroke-width: 0px;
      }

      .cls-5, .cls-6, .cls-7, .cls-8, .cls-9, .cls-10 {
        stroke-miterlimit: 10;
      }

      .cls-5, .cls-6, .cls-8, .cls-9 {
        stroke: #000;
      }

      .cls-5, .cls-8, .cls-4 {
        fill: #fff;
      }

      .cls-2 {
        fill: #dddbd3;
      }

      .cls-6 {
        fill: none;
      }

      .cls-7 {
        stroke-width: .43px;
      }

      .cls-7, .cls-10 {
        fill: #535761;
        stroke: #2d2f37;
      }

      .cls-8 {
        stroke-width: .47px;
      }

      .cls-9, .cls-3 {
        fill: #2c3532;
      }

      .cls-10 {
        stroke-width: .5px;
      }
    </style>
  </defs>
  <g id="Layer_1-2" data-name="Layer 1">
    <g>
      <path class="cls-2" d="M52.55,7.23c-.28-.01-.49-.22-.48-.47s.25-.43.52-.41.49.22.48.47-.25.43-.52.41Z"/>
      <path class="cls-2" d="M45.08,6.75c-.23-.01-.41-.18-.4-.38s.21-.35.44-.34.41.18.4.39-.21.35-.44.34Z"/>
      <g>
        <path class="cls-1" d="M66.78,53.65v-9.95h2.65v-27.13h-2.65V6.69h16.52v37.02h2.65v9.95h-19.17Z"/>
        <path class="cls-1" d="M87.88,53.65v-9.95h2.65v-27.13h-2.65V6.69h16.52v37.02h2.65v9.95h-19.17Z"/>
        <path class="cls-1" d="M114.25,51.33c-2.15-2.07-3.23-5.56-3.23-10.46v-10.91h-2.65v-9.89c1.53,0,2.67-.39,3.44-1.18.76-.78,1.14-1.86,1.14-3.23v-2.71h12.78v7.11h8.14v9.89h-8.14v9.89c0,1.33.29,2.3.87,2.92.58.62,1.46.93,2.62.93,1.53,0,3.2-.18,5-.54v9.46c-1.12.44-2.64.85-4.55,1.24-1.91.38-3.85.57-5.82.57-4.26,0-7.47-1.03-9.62-3.1Z"/>
        <path class="cls-1" d="M176.19,43.71v9.89h-19.05v-9.89h2.53v-9.89c0-1.33-.28-2.3-.84-2.92s-1.41-.93-2.53-.93c-2.41,0-3.62,1.29-3.62,3.86v9.89h2.53v9.89h-19.05v-9.89h2.65v-27.13h-2.65V6.69h16.52v18.09c1.49-1.85,3.09-3.24,4.82-4.16,1.73-.92,3.74-1.39,6.03-1.39,3.33,0,5.84,1.05,7.51,3.13,1.67,2.09,2.5,4.96,2.5,8.62v12.72h2.65Z"/>
        <path class="cls-1" d="M182.7,49.95c-3.21-2.99-4.82-7.36-4.82-13.11s1.61-10.12,4.82-13.11c3.21-2.99,7.68-4.49,13.38-4.49s9.76,1.48,12.27,4.43,3.77,6.62,3.77,11v4.34h-19.53v.36c0,1.49.44,2.58,1.33,3.29.88.7,2.35,1.06,4.4,1.06,2.45,0,4.78-.18,6.99-.54,2.21-.36,4.14-.82,5.79-1.39v9.65c-1.41.76-3.47,1.46-6.18,2.08-2.71.62-5.66.93-8.83.93-5.71,0-10.17-1.5-13.38-4.49ZM199.58,32.37v-.72c0-1.37-.29-2.35-.88-2.95-.58-.6-1.46-.9-2.62-.9s-2.04.31-2.62.93c-.58.62-.88,1.6-.88,2.92v.72h6.99Z"/>
        <path class="cls-1" d="M213.93,52.03v-8.92h9.77v.6c0,1.93,1.23,2.89,3.68,2.89,2.17,0,3.26-.74,3.26-2.23,0-.8-.31-1.41-.94-1.81-.62-.4-1.72-.74-3.29-1.03l-3.01-.54c-6.31-1.12-9.46-4.7-9.46-10.73,0-3.5,1.33-6.21,3.98-8.14,2.65-1.93,6.23-2.89,10.73-2.89,5.02,0,9.26.84,12.72,2.53v8.38h-9.16v-.6c0-.8-.27-1.42-.81-1.84-.54-.42-1.34-.63-2.38-.63-2.01,0-3.01.64-3.01,1.93,0,.68.28,1.21.84,1.57s1.59.7,3.07,1.03l3.44.66c3.58.68,6.13,1.95,7.66,3.8s2.29,4.22,2.29,7.11c0,3.66-1.28,6.45-3.83,8.38-2.55,1.93-6.18,2.89-10.88,2.89-5.06,0-9.95-.8-14.65-2.41Z"/>
        <path class="cls-1" d="M284.89,43.71v9.89h-16.52v-4.7c-2.89,3.7-6.51,5.55-10.85,5.55-3.34,0-5.84-1.04-7.51-3.13-1.67-2.09-2.5-4.96-2.5-8.62v-12.72h-2.65v-9.89h16.52v19.77c0,1.33.29,2.3.87,2.92.58.62,1.46.93,2.62.93s2.04-.31,2.62-.93c.58-.62.88-1.6.88-2.92v-9.89h-3.26v-9.89h17.12v23.63h2.65Z"/>
        <path class="cls-1" d="M306.98,52.93c-1.59-1-2.88-2.15-3.89-3.44v4.1h-16.52v-9.89h2.65v-27.13h-2.65V6.69h16.52v17.48c1-1.29,2.3-2.43,3.89-3.44,1.59-1,3.41-1.51,5.46-1.51,4.1,0,7.18,1.53,9.25,4.58,2.07,3.05,3.11,7.4,3.11,13.02s-1.04,9.97-3.11,13.02-5.15,4.58-9.25,4.58c-2.05,0-3.87-.5-5.46-1.51ZM309.21,42.77c.58-.62.87-1.6.87-2.92v-6.03c0-1.33-.29-2.3-.87-2.92-.58-.62-1.46-.93-2.62-.93s-2.04.31-2.62.93-.87,1.6-.87,2.92v6.03c0,1.33.29,2.3.87,2.92.58.62,1.46.93,2.62.93s2.04-.31,2.62-.93Z"/>
        <path class="cls-1" d="M326.48,52.03v-8.92h9.77v.6c0,1.93,1.22,2.89,3.68,2.89,2.17,0,3.25-.74,3.25-2.23,0-.8-.31-1.41-.93-1.81-.62-.4-1.72-.74-3.29-1.03l-3.02-.54c-6.31-1.12-9.46-4.7-9.46-10.73,0-3.5,1.33-6.21,3.98-8.14,2.65-1.93,6.23-2.89,10.73-2.89,5.02,0,9.26.84,12.72,2.53v8.38h-9.16v-.6c0-.8-.27-1.42-.81-1.84s-1.34-.63-2.38-.63c-2.01,0-3.01.64-3.01,1.93,0,.68.28,1.21.84,1.57.56.36,1.59.7,3.07,1.03l3.44.66c3.58.68,6.13,1.95,7.66,3.8s2.29,4.22,2.29,7.11c0,3.66-1.28,6.45-3.83,8.38-2.55,1.93-6.18,2.89-10.88,2.89-5.06,0-9.95-.8-14.65-2.41Z"/>
      </g>
      <path class="cls-9" d="M5.58,2.28h33.79v45.39c0,1.78-1.44,3.22-3.22,3.22H5.58c-1.78,0-3.22-1.44-3.22-3.22V5.5c0-1.78,1.44-3.22,3.22-3.22Z" transform="translate(2.5 -1.78) rotate(5.21)"/>
      <path class="cls-10" d="M48.31,4.73l-4.5,49.35-6.01-.55c-.28-.03-.53-.2-.65-.43-.07-.13-.1-.27-.09-.42l4.36-47.79c.04-.43.44-.75.88-.71l6.01.55Z"/>
      <polygon class="cls-4" points="46.22 26.22 45.63 32.67 39.67 25.46 40.27 18.89 46.22 26.22"/>
      <polygon class="cls-3" points="45.63 32.64 45.04 39.09 39.08 31.88 39.68 25.31 45.63 32.64"/>
      <polygon class="cls-4" points="47.4 13.21 46.82 19.66 40.86 12.45 41.45 5.89 47.4 13.21"/>
      <polygon class="cls-3" points="46.82 19.63 46.23 26.08 40.27 18.87 40.87 12.3 46.82 19.63"/>
      <polygon class="cls-4" points="45.03 39.23 44.44 45.68 38.48 38.47 39.08 31.9 45.03 39.23"/>
      <polygon class="cls-4" points="43.99 50.6 43.68 54.07 40.82 53.81 37.44 49.85 38.03 43.49 43.99 50.6"/>
      <polygon class="cls-3" points="44.45 45.65 43.86 52.09 37.9 44.89 38.5 38.32 44.45 45.65"/>
      <path class="cls-3" d="M40.75,53.8l-2.95-.27c-.28-.03-.53-.2-.65-.43l.3-3.24,3.3,3.94Z"/>
      <path class="cls-7" d="M53.72,5.74l8.12,47.32c.03.15,0,.29-.05.42-.1.24-.33.43-.61.48l-5.94,1.02L47.11,7.65c-.07-.42.22-.82.67-.9l5.94-1.02Z"/>
      <polygon class="cls-4" points="56.6 23.3 56.61 23.3 57.16 26.55 51.78 34.1 50.7 27.82 56.07 20.15 56.6 23.3"/>
      <polygon class="cls-3" points="57.68 29.56 57.68 29.55 58.23 32.81 52.85 40.36 51.77 34.07 57.14 26.41 57.68 29.56"/>
      <polygon class="cls-4" points="54.43 10.63 54.43 10.62 54.99 13.88 49.6 21.43 48.52 15.15 53.89 7.48 54.43 10.63"/>
      <polygon class="cls-3" points="55.5 16.88 55.51 16.88 56.06 20.13 50.67 27.68 49.6 21.4 54.97 13.73 55.5 16.88"/>
      <polygon class="cls-4" points="58.78 35.98 58.78 35.97 59.33 39.22 53.95 46.78 52.87 40.49 58.24 32.82 58.78 35.98"/>
      <polygon class="cls-4" points="60.7 47.16 60.7 47.16 61.24 50.31 58.17 54.47 55.35 54.96 54.77 51.58 60.17 44.12 60.18 44.11 60.7 47.16"/>
      <polygon class="cls-3" points="59.85 42.23 59.85 42.22 60.41 45.48 55.02 53.03 53.94 46.75 59.31 39.08 59.85 42.23"/>
      <path class="cls-3" d="M61.76,53.38h0s.02.1.02.1c-.1.24-.33.43-.61.48l-2.92.5,2.99-4.13.52,3.05Z"/>
      <path class="cls-9" d="M40.92,4.66h13.17c.29,0,.52.23.52.52v.82c0,5.92-4.81,10.73-10.73,10.73h-2.43c-.29,0-.52-.23-.52-.52V4.66h0Z" transform="translate(1.17 -4.29) rotate(5.21)"/>
      <circle class="cls-6" cx="21.81" cy="26.39" r="13.69"/>
      <path class="cls-5" d="M31.1,22.71l-8.9,12.65c-.5.72-1.59.62-1.96-.18l-6.46-14.05c-.36-.79.27-1.68,1.13-1.6l15.36,1.4c.87.08,1.33,1.07.83,1.78Z"/>
      <circle class="cls-8" cx="43.06" cy="5.77" r=".56"/>
      <circle class="cls-8" cx="53.43" cy="6.71" r=".56"/>
      <circle class="cls-8" cx="42.24" cy="14.71" r=".56"/>
    </g>
  </g>
</svg>