<?xml version="1.0" encoding="utf-8"?>
<!-- Generator: Adobe Illustrator 27.9.1, SVG Export Plug-In . SVG Version: 6.00 Build 0)  -->
<svg version="1.1" id="Layer_1" xmlns="http://www.w3.org/2000/svg" xmlns:xlink="http://www.w3.org/1999/xlink" x="0px" y="0px"
	 viewBox="0 0 500 500" style="enable-background:new 0 0 500 500;" xml:space="preserve">
<style type="text/css">
	.st0{stroke:#231F20;stroke-width:3;stroke-miterlimit:10;}
</style>
<path class="st0" d="M266.63,86.46v163.63c0,14.82,17.91,22.24,28.39,11.76l9.08-9.08c6.49-6.49,17.02-6.49,23.52,0l0,0
	c6.49,6.49,6.49,17.02,0,23.52l-65.86,65.85c-6.49,6.49-17.02,6.49-23.52,0l-65.86-65.85c-6.49-6.49-6.49-17.02,0-23.52l0,0
	c6.49-6.49,17.02-6.49,23.52,0l9.08,9.08c10.48,10.48,28.39,3.06,28.39-11.76V86.46c0-9.18,7.45-16.63,16.63-16.63h0
	C259.19,69.83,266.63,77.27,266.63,86.46z M438.5,370.61c0,14.52-11.77,26.3-26.3,26.3H87.8c-14.52,0-26.3-11.77-26.3-26.3v-95.67
	c0-9.18-7.45-16.63-16.63-16.63h0c-9.18,0-16.63,7.45-16.63,16.63v95.67c0,32.89,26.66,59.56,59.56,59.56H412.2
	c32.89,0,59.56-26.67,59.56-59.56v-95.67c0-9.18-7.45-16.63-16.63-16.63h0c-9.18,0-16.63,7.45-16.63,16.63V370.61z"/>
</svg>
