<?xml version="1.0" encoding="utf-8"?>
<!-- Generator: Adobe Illustrator 27.9.1, SVG Export Plug-In . SVG Version: 6.00 Build 0)  -->
<svg version="1.1" id="Layer_1" xmlns="http://www.w3.org/2000/svg" xmlns:xlink="http://www.w3.org/1999/xlink" x="0px" y="0px"
	 viewBox="0 0 500 500" style="enable-background:new 0 0 500 500;" xml:space="preserve">
<style type="text/css">
	.st0{fill:#BC2035;}
	.st1{fill-rule:evenodd;clip-rule:evenodd;fill:#010101;}
</style>
<g>
	<rect x="19.98" y="115.8" class="st0" width="460.04" height="268.39"/>
	<path class="st1" d="M323.94,286.26c-0.54-0.46-1.52-0.73-2.43-0.73c-0.81,0-2.06-0.27-2.78-0.62c-1.54-0.73-3.15-0.46-4.58,0.71
		c-0.9,0.71-1.54,0.9-5.04,1.17c-4.93,0.45-6.55,0.45-6.55,0.08c0-0.18,1.25-1.08,2.78-2.06c2.16-1.44,3.06-1.8,3.69-1.62
		c1.52,0.27,3.32-0.46,4.76-1.89c1.34-1.35,1.62-1.44,4.67-1.35c0.71,0,0.27,0.08,1.26-0.09c-0.45-1.25-2.25-3.59-5.3-2.87
		c-1.27,0.36-2.16,0.36-2.79,0.18c-1.98-0.71-4.58,0.73-5.39,2.79c-0.45,1.08-2.33,2.7-5.84,4.85l-2.52,1.62l-4.93-1.89
		c-5.49-2.16-10.24-4.22-10.24-4.58c0-0.18,0.71-0.98,1.52-1.98c0.81-0.89,1.52-1.79,1.52-1.89c0-0.08-0.89-0.71-2.16-1.25
		c-7.63-3.87-13.12-9.34-15.45-15.54c-1.61-4.31-0.81-5.31,1.16-1.44c1.62,3.14,2.79,4.49,5.04,5.93c2.33,1.52,3.68,1.79,4.58,0.98
		c1.08-0.98,0.81-2.16-0.73-3.85c-3.41-3.87-4.31-9.71-1.52-9.71c1.08,0,1.17,0.18,3.33,5.12c3.05,6.91,6.1,11.59,8.53,12.75
		c2.06,1.08,5.39,0.19,5.93-1.52c0.45-1.44-0.09-2.33-2.43-3.77c-3.68-2.43-6.1-6.3-7.01-11.32c-0.27-1.61-0.27-2.06,0.18-2.79
		c0.81-1.25,1.44-0.81,3.87,2.79c4.49,6.74,12.57,15.54,15.81,17.43c5.83,3.24,11.68,3.15,15.19-0.35c0.98-1,1.25-1.54,1.25-2.43
		c0-1.71-1.25-2.43-3.95-2.25c-6.12,0.27-6.74,0.18-9.09-0.9c-4.58-2.16-8.98-7.28-12.39-14.55c-3.33-6.74-2.52-7.09,3.05-1.43
		c7.55,7.63,13.57,10.51,19.14,8.8c2.69-0.81,5.22-3.23,5.22-5.03c0-1.98-1-2.52-3.87-2.34c-1.35,0.09-3.77,0.19-5.48,0.19
		c-2.78,0-3.24-0.09-5.39-1.08c-1.25-0.63-3.32-2.08-4.66-3.33c-3.6-3.33-9.61-11.59-9.61-13.11c0-1.62,1.43-1,5.12,2.24
		c2.95,2.61,8.34,6.29,10.77,7.37c1.44,0.63,2.35,0.71,4.94,0.81c2.79,0,3.51-0.1,4.85-0.9c2.25-1.16,3.06-2.24,3.23-4.58
		c0.27-3.32-1.35-4.12-6.29-2.96c-6.82,1.71-10.42,0.46-16.79-5.93c-3.06-3.14-4.14-4.85-3.77-5.84c0.37-0.98,1.71-0.54,7.55,2.43
		c6.37,3.23,8.26,3.87,11.22,3.87c2.7,0,4.41-0.54,6.03-1.98c2.5-2.16,3.14-4.49,1.52-6.02c-1.25-1.25-3.68-1.16-6.38,0.19
		c-1.35,0.62-2.79,1.16-4.04,1.25c-4.31,0.44-10.61-1.98-13.75-5.21c-2.16-2.16-3.14-4.13-2.52-4.84c0.63-0.73,1.53-0.55,3.96,0.45
		c4.67,1.97,6.82,2.51,10.32,2.51c3.95,0,6.29-0.62,9.71-2.51c2.6-1.44,4.31-3.33,4.31-4.58c0-0.54-0.27-1.44-0.72-2.06
		c-1-1.62-2.79-1.54-6.12,0.26c-6.65,3.6-11.23,4.14-15.81,1.8c-1.97-1-5.3-4.14-6.2-5.85c-0.54-1.08-0.54-1.16,0-1.7
		c0.63-0.63,1.08-0.54,6.2,1.35c2.61,0.89,3.69,1.16,6.74,1.25c4.04,0.18,6.47-0.27,9.07-1.44c3.51-1.61,6.93-5.74,6.93-8.35
		c0-1.26-0.81-2.87-1.54-3.24c-1.52-0.54-2.33-0.18-4.66,2.25c-3.6,3.68-7.2,5.12-12.94,5.12c-6.02,0-8.53-0.98-8.53-3.24
		c0-1.52,1.16-2.52,3.68-2.87c7.55-1.27,16.26-5.21,20.93-9.53c2.79-2.6,3.87-4.4,3.77-6.55c0-2.52-1.08-4.14-3.06-4.77
		c-1.7-0.45-2.96,0.27-4.66,3.06c-2.97,4.58-5.93,7.18-11.59,9.97c-3.33,1.61-8.63,3.41-9.61,3.23c-0.27-0.09-0.81-0.73-1.08-1.44
		c-0.81-2.33-1-2.33-4.41-0.9c-1.71,0.73-5.21,2.08-7.82,2.97c-5.22,1.89-6.92,2.96-8.18,5.39c-0.62,1.17-0.71,1.98-0.71,5.66
		c0,3.87-0.1,4.31-0.81,5.39c-1.08,1.44-1.89,1.89-4.14,1.89c-3.14,0-4.93-1.89-5.12-5.57c-0.18-2.96,0.36-5.49,1.8-8.53
		c1.43-3.06,3.14-4.85,6.28-6.92c3.06-1.97,5.93-2.87,10.17-3.32c3.77-0.37,7.63-1.81,8.53-3.68c-3.87,1.16-7.82-0.55-7.45-0.73
		c0.35-0.18,7.28-0.18,8.17-0.27c2.89-0.27,4.04-1.08,5.66-2.24c1.89-1.35,3.06-2.52,2.61-3.42c-0.46-0.89-1.89-0.71-2.79,0.27
		c-0.45,0.54-1.35,1.54-1.98,2.25c-1.08,1.25-1.35,1.35-4.58,1.89c-2.51,0.35-2.96,0.35-4.39,0c-0.46-0.37-0.9-0.73-0.9-0.9
		c0-0.45,1.34-1.25,2.6-1.52c0.9-0.19,2.96,0.54,4.68,0.98c-0.36-0.98-0.36-1.08-0.98-2.16c-0.81-1.62-2.25-2.16-5.93-2.33
		c-2.52-0.09-3.42-0.27-3.96-0.71c-0.45-0.36-0.98-0.81-1.35-1c-0.44-0.27-1.08-0.35-1.89-0.35c-2.33-0.09-5.93,0.81-9.43,2.33
		c-1.89,0.81-2.78,1.08-4.76,1.08c-1.35,0-3.06-0.19-3.87-0.37c-2.69-0.71-3.24-0.71-3.24-0.17c0,0.62,2.35,2.77,4.04,3.68
		c1,0.45,1.35,0.81,1.17,1.17c-0.27,0.71-2.87,2.5-4.49,3.05c-1.61,0.54-1.61,1.27,0.18,2.07c0.81,0.35,1.44,0.81,1.44,1.08
		c0,0.98-3.42,3.23-4.94,3.23c-1.89,0-1.17,1.53,0.9,1.97c1.16,0.27,1.16,0.37,0.18,1.54c-1.17,1.25-2.16,1.79-3.23,1.52
		c-1.26-0.27-1.52,0.18-0.81,1.53c0.64,1,0.64,1.08,0,1.54c-0.27,0.18-0.63,0.35-0.98,0.44c-0.09,0-0.19,0-0.27,0.09
		c-0.09,0-0.19,0-0.27,0c-0.1,0-0.18,0-0.27,0c-0.1,0-0.17,0-0.27-0.09c-0.37-0.1-0.72-0.18-0.99-0.44c-0.63-0.46-0.63-0.54,0-1.54
		c0.72-1.35,0.45-1.79-0.81-1.53c-1.17,0.27-2.16-0.18-3.24-1.52c-1-1.17-1-1.27,0.18-1.54c2.06-0.44,2.79-1.97,0.9-1.97
		c-1.53,0-4.95-2.25-4.95-3.23c0-0.19,0.64-0.73,1.44-1.08c1.79-0.9,1.79-1.54,0.18-2.07c-1.62-0.54-4.22-2.33-4.49-3.05
		c-0.19-0.37,0.18-0.73,1.17-1.17c1.7-0.9,4.03-2.96,4.03-3.68c0-0.54-0.54-0.54-3.23,0.17c-0.71,0.19-2.43,0.37-3.86,0.37
		c-1.98,0-2.87-0.19-4.76-1.08c-3.51-1.52-7.1-2.43-9.44-2.33c-0.81,0-1.44,0.18-1.89,0.35c-0.36,0.19-1,0.63-1.35,1
		c-0.54,0.45-1.35,0.62-3.96,0.71c-3.68,0.09-5.12,0.71-5.93,2.33c-0.62,1.17-0.62,1.27-0.99,2.16c1.71-0.45,3.68-1.16,4.68-0.98
		c1.25,0.27,2.6,1.08,2.6,1.52c0,0.19-0.44,0.54-0.9,0.9c-1.43,0.35-1.89,0.35-4.39,0c-3.24-0.54-3.51-0.63-4.59-1.89
		c-0.63-0.71-1.54-1.71-1.98-2.25c-0.9-1.08-2.33-1.26-2.79-0.27c-0.44,0.9,0.73,2.07,2.61,3.42c1.62,1.16,2.7,1.97,5.66,2.24
		c0.89,0.09,7.82,0.09,8.17,0.27c0.37,0.19-3.59,1.89-7.45,0.73c0.9,1.87,4.76,3.32,8.53,3.68c4.23,0.45,7.1,1.35,10.16,3.32
		c3.14,2.07,4.85,3.96,6.28,6.92c1.44,2.97,1.98,5.57,1.81,8.53c-0.19,3.68-1.98,5.57-5.12,5.57c-2.16,0-3.06-0.44-4.14-1.89
		c-0.71-0.98-0.81-1.52-0.81-5.39c0-3.68-0.09-4.49-0.71-5.66c-1.27-2.43-2.97-3.58-8.18-5.39c-2.6-0.89-6.11-2.24-7.82-2.97
		c-3.41-1.43-3.6-1.43-4.41,0.9c-0.27,0.81-0.72,1.44-1.08,1.44c-0.98,0.18-6.28-1.62-9.61-3.23c-5.66-2.88-8.72-5.39-11.59-9.97
		c-1.71-2.7-2.97-3.51-4.68-3.06c-1.97,0.54-3.05,2.25-3.05,4.77c0,2.16,0.99,3.95,3.77,6.55c4.67,4.31,13.38,8.26,20.93,9.53
		c2.52,0.35,3.68,1.35,3.68,2.87c0,2.33-2.51,3.24-8.53,3.24c-5.66,0-9.26-1.44-12.94-5.12c-2.33-2.43-3.14-2.79-4.68-2.25
		c-0.71,0.27-1.52,1.98-1.52,3.24c0,2.61,3.41,6.74,6.91,8.35c2.62,1.27,5.04,1.62,9.09,1.44c2.97-0.08,4.13-0.36,6.65-1.25
		c5.12-1.89,5.57-1.98,6.2-1.35c0.44,0.44,0.44,0.62,0,1.7c-0.91,1.71-4.22,4.85-6.2,5.85c-4.68,2.33-9.16,1.79-15.81-1.8
		c-3.33-1.79-5.12-1.89-6.12-0.26c-0.35,0.62-0.72,1.53-0.72,2.06c0,1.25,1.72,3.14,4.31,4.58c3.41,1.89,5.76,2.51,9.71,2.51
		c3.51,0,5.76-0.54,10.34-2.51c2.33-1,3.32-1.08,3.95-0.45c0.54,0.71-0.45,2.68-2.52,4.84c-3.14,3.15-9.51,5.58-13.75,5.21
		c-1.25-0.09-2.69-0.63-4.04-1.25c-2.69-1.35-5.12-1.44-6.38-0.19c-1.52,1.54-0.98,3.96,1.52,6.02c1.61,1.44,3.33,1.98,6.02,1.98
		c2.96,0,4.85-0.63,11.23-3.87c5.85-2.97,7.2-3.41,7.55-2.43c0.46,0.99-0.71,2.7-3.77,5.84c-6.28,6.39-9.88,7.64-16.79,5.93
		c-4.85-1.26-6.56-0.35-6.29,2.96c0.18,2.35,0.98,3.51,3.23,4.58c1.44,0.73,2.16,0.9,4.95,0.9c2.6,0,3.58-0.18,4.93-0.81
		c2.43-1.17,7.74-4.76,10.78-7.37c3.69-3.24,5.12-3.85,5.12-2.24c0,1.62-6.01,9.88-9.61,13.11c-1.35,1.25-3.41,2.7-4.68,3.33
		c-2.06,0.98-2.51,1.08-5.39,1.08c-1.7,0-4.12-0.09-5.47-0.19c-2.96-0.18-3.87,0.36-3.87,2.34c0,1.79,2.52,4.22,5.22,5.03
		c5.57,1.62,11.67-1.17,19.14-8.8c5.57-5.66,6.37-5.31,3.04,1.43c-3.5,7.28-7.9,12.4-12.4,14.55c-2.33,1.08-2.97,1.17-9.07,0.9
		c-2.7-0.18-3.95,0.54-3.95,2.25c0,0.81,0.27,1.43,1.25,2.43c3.51,3.5,9.26,3.58,15.1,0.35c3.33-1.79,11.41-10.69,15.9-17.43
		c2.42-3.6,2.96-4.04,3.77-2.79c0.54,0.73,0.54,1.17,0.27,2.79c-1,5.03-3.33,8.9-7.01,11.32c-2.33,1.52-2.87,2.43-2.43,3.77
		c0.54,1.71,3.86,2.6,5.93,1.52c2.43-1.25,5.47-5.84,8.53-12.75c2.16-4.95,2.25-5.12,3.33-5.12c2.77,0,1.79,5.84-1.54,9.71
		c-1.52,1.7-1.79,2.87-0.71,3.85c0.9,0.81,2.25,0.54,4.58-0.98c2.25-1.44,3.41-2.79,5.03-5.93c1.98-3.87,2.89-2.87,1.17,1.44
		c-2.25,6.1-7.72,11.59-15.46,15.54c-1.16,0.54-2.16,1.17-2.16,1.25c0,0.09,0.73,1,1.53,1.89c0.81,1,1.52,1.8,1.52,1.98
		c0,0.37-4.68,2.43-10.24,4.58l-4.93,1.89l-2.52-1.62c-3.51-2.16-5.49-3.77-5.84-4.85c-0.81-2.16-3.42-3.5-5.39-2.79
		c-0.73,0.27-1.54,0.19-2.79-0.18c-3.06-0.81-4.85,1.62-5.3,2.87c1.08,0.19,0.54,0.09,1.25,0.09c3.06-0.19,3.41,0,4.68,1.35
		c1.43,1.43,3.23,2.16,4.76,1.89c0.71-0.19,1.52,0.27,3.68,1.62c1.54,0.99,2.79,1.89,2.79,2.06c0,0.37-1.62,0.37-6.57-0.08
		c-3.5-0.27-4.12-0.37-5.03-1.17c-1.44-1.17-3.06-1.44-4.58-0.71c-0.71,0.35-1.89,0.62-2.79,0.62c-0.89,0-1.89,0.37-2.43,0.73
		c-0.98,0.71-1.7,1.16-2.06,2.6c1.89,0,1.25,0,2.6-0.18c2.25-0.36,2.52-0.36,3.23,0.35c0.46,0.37,1.17,0.9,1.54,1.08
		c0.99,0.54,3.41,0.46,4.49-0.18c0.71-0.37,2.33-0.45,6.02-0.45c2.78,0,5.2,0,5.39,0c0.18,0-0.9,0.71-2.43,1.7
		c-2.62,1.62-2.88,1.71-5.12,1.62c-2.96,0-4.67,0.9-5.21,2.79c-0.18,0.71-0.45,1.89-0.71,2.7c-0.46,1.79-0.64,2.06,0.62,5.2
		c1.44-3.41,1-2.43,1.44-3.04c0.71-1.08,0.98-1.27,2.69-1.35c2.33-0.19,3.41-0.9,4.31-2.79c0.64-1.25,1.26-1.88,4.41-3.77
		c4.31-2.7,4.04-2.7,8.89-0.45c2.43,1.16,3.22,1.71,3.68,2.51c0.72,1.44,2.25,1.98,3.95,1.44c1.62-0.44,2.33-0.17,3.41,1.35
		c0.46,0.63,0.46,0.54,1.17,1.17c0.19-1,0.19-1.08,0.19-2.08c0-1.43-0.19-1.7-1.98-3.49c-2.16-2.15-3.41-2.69-4.95-2.15
		c-0.71,0.26-1.35,0.17-3.14-0.73c-2.06-0.89-2.87-1.7-1.8-1.7c0.18,0,3.51-1.27,7.28-2.69l6.91-2.69l0.98,0.81
		c1.89,1.43,4.85,2.87,6.2,2.87c1.17,0,1.35-0.09,1.71-1.35c0.54-1.98,4.58-9.61,6.74-12.94c3.59-5.57,5.57-7.01,7.18-5.22
		c0.54,0.63,0.63,1.27,0.63,3.33c-0.09,6.29-3.6,14.38-8.27,19.04c-2.42,2.43-5.12,3.77-8.44,4.31c-2.52,0.37-4.23,0.98-4.23,1.62
		c0,0.73,1.71,2.69,2.69,3.24c0.9,0.44,1.81,0.54,3.77,0.54c2.35-0.08,2.79-0.27,5.04-1.62c2.24-1.35,2.6-1.43,2.96-0.98
		c0.45,0.45,0.45,0.71,0.18,1.97c-0.72,2.7-2.6,3.87-7.1,4.41c-4.49,0.54-6.11,1.98-4.57,4.04c0.98,1.35,2.68,2.06,5.03,2.06
		c2.7,0,4.93-1.16,8-4.04c1.35-1.16,2.52-2.06,2.69-1.97c0.44,0.27,0.44,3.05-0.08,4.66c-0.46,1.62-2.62,4.14-3.96,4.68
		c-0.54,0.18-1.79,0.63-2.87,0.9c-3.68,0.98-4.22,2.5-1.62,4.22c1.71,1.17,4.59,1.26,6.64,0.27c1.35-0.63,5.12-4.14,5.85-5.39
		c0.62-1.17,1.26-0.27,1.08,1.35c-0.19,1.44-1,2.96-2.79,5.57c-1.52,2.07-0.98,4.85,1.53,8.54c1.71,2.51,3.33,4.31,4.04,4.59
		c0.73-0.37,2.34-2.08,4.04-4.59c2.52-3.77,3.06-6.56,1.54-8.54c-1.89-2.6-2.69-4.12-2.79-5.57c-0.18-1.72,0.44-2.52,1.08-1.35
		c0.71,1.25,4.49,4.76,5.83,5.39c2.08,0.99,4.95,0.9,6.66-0.27c2.6-1.71,2.06-3.14-1.62-4.22c-1.08-0.27-2.35-0.73-2.89-0.9
		c-1.25-0.54-3.41-3.06-3.95-4.68c-0.54-1.7-0.54-4.39-0.1-4.66c0.18-0.09,1.35,0.71,2.7,1.97c3.06,2.88,5.3,4.04,7.99,4.04
		c2.35,0,4.05-0.71,5.04-2.06c1.52-2.16,0-3.5-4.58-4.04c-4.41-0.54-6.39-1.79-7.1-4.41c-0.36-1.25-0.36-1.52,0.09-1.97
		c0.44-0.45,0.81-0.37,2.97,0.98c2.24,1.35,2.69,1.52,5.03,1.62c1.98,0.09,2.87,0,3.78-0.54c1.08-0.54,2.69-2.51,2.69-3.24
		c0-0.63-1.71-1.25-4.22-1.62c-3.23-0.44-5.93-1.79-8.45-4.31c-4.68-4.58-8.26-12.75-8.26-19.04c0-2.16,0.08-2.79,0.62-3.33
		c1.62-1.79,3.6-0.35,7.2,5.22c2.16,3.23,6.11,10.95,6.74,12.94c0.35,1.25,0.54,1.35,1.7,1.35c1.27,0,4.31-1.35,6.2-2.87l1-0.81
		l6.92,2.69c3.77,1.43,7.1,2.69,7.28,2.69c1.08,0,0.27,0.71-1.8,1.7c-1.89,0.9-2.43,0.98-3.15,0.73c-1.52-0.63-2.78,0-4.93,2.15
		c-1.8,1.79-1.98,2.16-1.98,3.49c0,1,0,1.08,0.18,2.08c0.73-0.63,0.73-0.46,1.17-1.17c1.08-1.52,1.79-1.79,3.41-1.35
		c1.71,0.54,3.24,0,3.96-1.44c0.44-0.79,1.25-1.35,3.68-2.51c4.85-2.25,4.58-2.25,8.9,0.45c3.14,1.98,3.77,2.52,4.39,3.77
		c0.9,1.89,1.98,2.6,4.31,2.79c1.72,0.08,1.98,0.27,2.7,1.35c0.46,0.62-0.08-0.46,1.44,3.04c1.35-3.14,1.17-3.41,0.63-5.2
		c-0.19-0.73-0.54-1.98-0.73-2.7c-0.45-1.88-2.16-2.79-5.2-2.79c-2.25,0-2.52,0-5.12-1.62c-1.53-0.89-2.61-1.7-2.43-1.7
		c0.18,0,2.6,0,5.39,0c3.68,0,5.3,0.18,6.01,0.45c1.17,0.63,3.5,0.63,4.5,0.18c0.45-0.18,1.08-0.71,1.53-1.08
		c0.72-0.62,0.98-0.71,3.23-0.35c1.35,0.18,0.72,0.18,2.6,0.18c0.27-1.44-0.44-1.89-1.43-2.6 M274.8,174.03
		c0.73-0.45-0.62-1.89,0.9-1.79c0.36,0,0.81,0.08,1.52,0.27c1.08,0.17,1.62,1.43,1,2.06c-0.73,0.71-4.5,0.98-5.21,0.37
		C271.75,171.6,273.91,174.67,274.8,174.03 M227.01,175.11c-0.72,0.54-4.5,0.36-5.21-0.37c-0.71-0.71-0.18-1.89,0.98-2.06
		c0.73-0.17,1.27-0.27,1.54-0.27c1.52-0.08,0.08,1.35,0.81,1.81C226.11,174.67,228.26,171.6,227.01,175.11"/>
</g>
</svg>
