<?xml version="1.0" encoding="utf-8"?>
<!-- Generator: Adobe Illustrator 27.9.1, SVG Export Plug-In . SVG Version: 6.00 Build 0)  -->
<svg version="1.1" id="Layer_1" xmlns="http://www.w3.org/2000/svg" xmlns:xlink="http://www.w3.org/1999/xlink" x="0px" y="0px"
	 viewBox="0 0 500 500" style="enable-background:new 0 0 500 500;" xml:space="preserve">
<style type="text/css">
	.st0{fill:#BE2227;}
	.st1{fill:#F7E51E;}
</style>
<g>
	<rect x="13.58" y="112.01" class="st0" width="471.86" height="275.29"/>
	<path class="st1" d="M414.65,387.3h70.78L249.51,249.61L414.65,387.3z M13.58,112.01l235.93,137.6L84.36,112.01H13.58z
		 M13.58,112.01"/>
	<path class="st1" d="M225.91,387.3h47.18l-23.58-137.69L225.91,387.3z M225.91,112.01l23.6,137.6l23.58-137.6H225.91z
		 M225.91,112.01"/>
	<path class="st1" d="M13.58,387.3h70.78l165.15-137.69L13.58,387.3z M414.65,112.01l-165.15,137.6l235.93-137.6H414.65z
		 M414.65,112.01"/>
	<path class="st1" d="M13.58,277.16l235.93-27.55L13.58,222.06V277.16z M249.51,249.61l235.93,27.55v-55.01L249.51,249.61z
		 M249.51,249.61"/>
	<path class="st0" d="M249.51,200.49c27.18,0,49.12,22.02,49.12,49.12c0,27.19-22.02,49.12-49.12,49.12
		c-27.19,0-49.12-22.02-49.12-49.12C200.39,222.43,222.31,200.49,249.51,200.49"/>
	<path class="st1" d="M249.51,210.26c21.75,0,39.34,17.6,39.34,39.35c0,21.74-17.6,39.36-39.34,39.36
		c-21.74,0-39.36-17.61-39.36-39.36C210.15,227.86,227.76,210.26,249.51,210.26"/>
</g>
</svg>
