<?xml version="1.0" encoding="utf-8"?>
<!-- Generator: Adobe Illustrator 27.9.1, SVG Export Plug-In . SVG Version: 6.00 Build 0)  -->
<svg version="1.1" id="Layer_1" xmlns="http://www.w3.org/2000/svg" xmlns:xlink="http://www.w3.org/1999/xlink" x="0px" y="0px"
	 viewBox="0 0 500 500" style="enable-background:new 0 0 500 500;" xml:space="preserve">
<style type="text/css">
	.st0{fill:#303085;}
	.st1{fill:#F4CC2C;}
	.st2{fill:#FFFFFF;}
</style>
<g>
	<rect x="14.56" y="112.59" class="st0" width="469.89" height="274.14"/>
	<path class="st1" d="M394.79,112.59H120.66l274.13,274.04V112.59z M394.79,112.59"/>
	<path class="st2" d="M61.84,112.59l-5.78,17.99l15.32-11.21l15.23,11.21l-5.77-17.99H61.84z M61.84,112.59"/>
	<path class="st2" d="M335.96,386.63h19l15.24-11.11h-18.92l-5.86-17.98l-5.78,17.98h-19L335.96,386.63z M335.96,386.63"/>
	<path class="st2" d="M115.06,146.82l15.32-11.11h-18.9l-5.88-18l-5.86,18h-18.9l15.32,11.11l-5.88,17.98l15.32-11.1l15.34,11.1
		L115.06,146.82z M115.06,146.82"/>
	<path class="st2" d="M149.3,181.05l15.32-11.11h-18.9l-5.88-17.98l-5.78,17.98h-19l15.32,11.11l-5.78,17.99l15.24-11.11
		l15.32,11.11L149.3,181.05z M149.3,181.05"/>
	<path class="st2" d="M183.62,215.29l15.32-11.11h-19l-5.78-18l-5.86,18h-18.92l15.33,11.11l-5.88,18.08l15.32-11.19l15.24,11.19
		L183.62,215.29z M183.62,215.29"/>
	<path class="st2" d="M217.84,249.61l15.33-11.11h-18.91l-5.86-17.98l-5.88,17.98h-18.9l15.32,11.11l-5.86,17.99l15.32-11.11
		l15.32,11.11L217.84,249.61z M217.84,249.61"/>
	<path class="st2" d="M252.08,283.83l15.32-11.09h-18.9l-5.88-17.99l-5.78,17.99h-18.9l15.24,11.09l-5.78,17.99l15.22-11.11
		l15.34,11.11L252.08,283.83z M252.08,283.83"/>
	<path class="st2" d="M286.4,318.17l15.33-11.2h-19l-5.78-17.98l-5.88,17.98h-18.9l15.32,11.2l-5.88,17.9l15.33-11.11l15.22,11.11
		L286.4,318.17z M286.4,318.17"/>
	<path class="st2" d="M320.64,352.39l15.32-11.09h-18.9l-5.88-18l-5.86,18H286.4l15.33,11.09l-5.88,17.99l15.32-11.11l15.34,11.11
		L320.64,352.39z M320.64,352.39"/>
</g>
</svg>
