<?xml version="1.0" encoding="utf-8"?>
<!-- Generator: Adobe Illustrator 27.9.1, SVG Export Plug-In . SVG Version: 6.00 Build 0)  -->
<svg version="1.1" id="Layer_1" xmlns="http://www.w3.org/2000/svg" xmlns:xlink="http://www.w3.org/1999/xlink" x="0px" y="0px"
	 viewBox="0 0 500 500" style="enable-background:new 0 0 500 500;" xml:space="preserve">
<style type="text/css">
	.st0{fill:#FFFFFF;}
	.st1{fill-rule:evenodd;clip-rule:evenodd;fill:#304196;}
	.st2{fill-rule:evenodd;clip-rule:evenodd;fill:#BC2035;}
</style>
<g>
	<rect x="17.03" y="114.03" class="st0" width="464.94" height="271.24"/>
	<rect x="17.03" y="204.39" class="st1" width="464.94" height="180.8"/>
	<rect x="17.03" y="294.82" class="st2" width="464.94" height="90.45"/>
	<path class="st0" d="M87.4,177.77c-5.45,0.46-3.89,7.09-4.63,10.82c-1.91,25.96-4.63,52.66,3.36,77.92
		c6.27,20.34,21.16,37.23,39.23,48.03c4.46,2.45,8.82,5.63,13.72,6.91c5.17-1.46,9.71-4.73,14.34-7.36
		c17.79-10.81,32.42-27.51,38.59-47.68c8.08-25.7,5.18-52.85,3.27-79.28c-0.27-3.64,0.27-9.9-5.08-9.53H87.4V177.77z M87.4,177.77"
		/>
	<path class="st2" d="M139.09,181.78v135.58c-62.76-30.43-55.85-80.74-51.68-135.58H139.09z M139.09,181.78v135.58
		c62.74-30.43,55.83-80.74,51.67-135.58H139.09z M139.09,181.78"/>
	<path class="st0" d="M146.44,219.01c6.62,0,13.35,1.19,19.79,2.45c-1.91-6.27-1.91-10.18,0-16.44c-6.44,1.28-13.17,2.45-19.79,2.45
		h-14.63c-6.62,0-13.35-1.17-19.79-2.45c1.91,6.27,1.91,10.18,0,16.44c6.44-1.27,13.17-2.45,19.79-2.45H146.44z M146.44,219.01"/>
	<path class="st0" d="M152.07,243.7c6.64,0,13.35,1.19,19.79,2.45c-1.91-6.27-1.91-10.16,0-16.43c-6.44,1.27-13.16,2.45-19.79,2.45
		h-26.06c-6.64,0-13.35-1.19-19.81-2.45c1.91,6.27,1.91,10.16,0,16.43c6.46-1.27,13.17-2.45,19.81-2.45H152.07z M152.07,243.7"/>
	<path class="st0" d="M130.82,186.95c1.27,6.44,2.55,13.16,2.55,19.7v84.01h11.53v-84.01c0-6.54,1.19-13.25,2.54-19.7
		C140.99,188.94,137.18,188.94,130.82,186.95"/>
	<path class="st1" d="M113.01,270.32c-7.44,0-13.43,5.98-13.43,13.34c0,0.54,0.08,1.09,0.17,1.64c2.63,3.81,5.63,7.55,9.09,11.09
		c1.36,0.45,2.72,0.72,4.17,0.72c7.45,0,13.45-5.99,13.45-13.44C126.55,276.3,120.46,270.32,113.01,270.32"/>
	<path class="st1" d="M139.09,262.42c-9.45,0-17.08,7.63-17.08,17.07c0,9.44,7.63,17.07,17.08,17.07c9.44,0,17.07-7.63,17.07-17.07
		C156.15,270.04,148.53,262.42,139.09,262.42"/>
	<path class="st1" d="M165.14,270.32c-7.45,0-13.44,5.98-13.44,13.34c0,7.45,5.99,13.44,13.44,13.44c1.46,0,2.82-0.27,4.19-0.72
		c3.54-3.54,6.52-7.27,9.17-11.09c0.09-0.55,0.18-1.09,0.18-1.64C178.59,276.3,172.5,270.32,165.14,270.32"/>
	<path class="st1" d="M101.84,288.29c8.27,10.99,20.08,20.9,37.24,29.15c17.16-8.35,28.96-18.16,37.23-29.15H101.84z M101.84,288.29
		"/>
</g>
</svg>
