<?xml version="1.0" encoding="utf-8"?>
<!-- Generator: Adobe Illustrator 27.9.1, SVG Export Plug-In . SVG Version: 6.00 Build 0)  -->
<svg version="1.1" id="Layer_1" xmlns="http://www.w3.org/2000/svg" xmlns:xlink="http://www.w3.org/1999/xlink" x="0px" y="0px"
	 viewBox="0 0 500 500" style="enable-background:new 0 0 500 500;" xml:space="preserve">
<style type="text/css">
	.st0{fill:#448FC2;}
	.st1{fill:#D61E43;}
	.st2{fill-rule:evenodd;clip-rule:evenodd;fill:#48AD68;}
	.st3{fill-rule:evenodd;clip-rule:evenodd;fill:#FFFFFF;}
</style>
<g>
	<rect x="24.15" y="118.24" class="st0" width="451.7" height="263.51"/>
	<rect x="24.15" y="206.02" class="st1" width="451.7" height="87.86"/>
	<rect x="24.15" y="293.88" class="st2" width="451.7" height="87.88"/>
	<path class="st3" d="M258.91,280.74c-16.94,0-30.7-13.76-30.7-30.78c0-16.94,13.76-30.7,30.7-30.7c6.18,0,11.91,1.85,16.68,4.94
		c-6.71-6.79-16.06-11.12-26.38-11.12c-20.38,0-36.88,16.51-36.88,36.88c0,20.37,16.5,36.87,36.88,36.87
		c10.32,0,19.67-4.24,26.38-11.12C270.82,278.89,265.09,280.74,258.91,280.74"/>
	<path class="st3" d="M277.17,253.84l-10.32-3.88l10.32-3.89l-4.59-10.14l10.15,4.58l3.88-10.32l3.89,10.42l10.06-4.59l-4.59,10.06
		l10.41,3.89l-10.41,3.88l4.59,10.14l-10.06-4.58l-3.97,10.32l-3.89-10.32l-10.06,4.5L277.17,253.84z M277.17,253.84"/>
</g>
</svg>
