<?xml version="1.0" encoding="utf-8"?>
<!-- Generator: Adobe Illustrator 27.9.1, SVG Export Plug-In . SVG Version: 6.00 Build 0)  -->
<svg version="1.1" id="Layer_1" xmlns="http://www.w3.org/2000/svg" xmlns:xlink="http://www.w3.org/1999/xlink" x="0px" y="0px"
	 viewBox="0 0 500 500" style="enable-background:new 0 0 500 500;" xml:space="preserve">
<style type="text/css">
	.st0{fill:#FFFFFF;}
	.st1{fill-rule:evenodd;clip-rule:evenodd;fill:#E72128;}
	.st2{fill-rule:evenodd;clip-rule:evenodd;fill:#4960AB;}
	.st3{fill-rule:evenodd;clip-rule:evenodd;fill:#F7E51E;}
</style>
<g>
	<rect x="13.58" y="112.01" class="st0" width="471.85" height="275.28"/>
	<rect x="13.58" y="295.5" class="st1" width="471.85" height="91.8"/>
	<rect x="13.58" y="203.71" class="st2" width="471.85" height="91.8"/>
	<path class="st1" d="M117.91,164.91c-0.83,0.37-1.66,0.75-2.49,1.2l2.57,41.65c0.75,11.34,5.53,22.12,13.64,30.23
		c5.53,5.53,12.35,9.58,19.63,11.71c7.37-2.21,14.1-6.18,19.63-11.71c8.11-8.11,12.9-18.8,13.65-30.23l2.57-41.65
		c-0.83-0.37-1.66-0.83-2.49-1.2l-2.67,42.58c-0.65,10.7-5.25,20.93-12.9,28.48c-5.08,5.07-11.16,8.76-17.8,10.88
		c-6.64-2.12-12.82-5.81-17.79-10.88c-7.64-7.64-12.17-17.78-12.9-28.48L117.91,164.91"/>
	<path class="st2" d="M184.72,164.91c-10.41-4.6-21.74-7-33.36-7c-11.62,0-22.95,2.39-33.37,7l2.68,42.58
		c0.63,10.7,5.25,20.93,12.9,28.48c5.08,5.07,11.16,8.76,17.79,10.88c6.64-2.12,12.8-5.81,17.78-10.88
		c7.66-7.64,12.17-17.78,12.91-28.48"/>
	<polyline class="st3" points="153.3,177.82 154.77,175.79 152.28,176.06 151.27,173.75 150.26,176.06 147.77,175.79 149.33,177.82 
		147.77,179.83 150.26,179.56 151.27,181.87 152.28,179.56 154.77,179.83 	"/>
	<polyline class="st3" points="143.9,165.18 145.37,163.16 142.88,163.44 141.87,161.13 140.86,163.44 138.37,163.16 139.84,165.18 
		138.37,167.21 140.86,166.94 141.87,169.24 142.88,166.94 145.37,167.21 	"/>
	<polyline class="st3" points="162.79,165.18 164.26,163.16 161.78,163.44 160.77,161.13 159.74,163.44 157.26,163.16 
		158.74,165.18 157.26,167.21 159.74,166.94 160.77,169.24 161.78,166.94 164.26,167.21 	"/>
	<path class="st0" d="M178.27,213.66l-13.45-17.97l-5.43,7.19l-8.12-16.13l-8.11,16.13l-5.34-7.19l-13.46,17.97
		c0,2.39,0.92,4.7,2.68,6.36c1.74,1.66,3.95,2.67,6.36,2.67c1.57,0,3.13-0.46,4.51-1.19c0.65-0.38,1.38-0.65,2.21-0.93
		c2.31-0.65,4.7-0.28,6.83,0.93c1.38,0.83,2.94,1.19,4.51,1.19c1.58,0,3.14-0.36,4.52-1.19c2.03-1.2,4.52-1.48,6.82-0.93
		c0.75,0.18,1.48,0.55,2.21,0.93c1.39,0.83,2.96,1.19,4.52,1.19c2.39,0,4.7-0.91,6.36-2.67
		C177.54,218.27,178.27,216.06,178.27,213.66"/>
	<path class="st0" d="M127.59,223.44c0.64,1.19,1.28,2.39,2.02,3.59c1.94,0.83,4.07,1.11,6.08,0.56c0.75-0.19,1.48-0.56,2.13-0.93
		c1.38-0.83,2.85-1.2,4.51-1.2c1.57,0,3.14,0.37,4.52,1.2c2.03,1.2,4.52,1.48,6.82,0.93c0.75-0.19,1.48-0.56,2.13-0.93
		c1.38-0.83,2.85-1.2,4.51-1.2c1.58,0,3.14,0.37,4.52,1.2c2.03,1.2,4.52,1.48,6.81,0.93c0.47-0.1,1.02-0.28,1.48-0.56
		c0.73-1.2,1.38-2.4,2.03-3.59c-0.47,0.18-0.92,0.36-1.3,0.63c-0.64,0.37-1.38,0.75-2.21,0.93c-2.29,0.65-4.78,0.28-6.81-0.93
		c-1.38-0.83-2.94-1.19-4.52-1.19c-1.56,0-3.13,0.46-4.51,1.19c-0.65,0.37-1.38,0.75-2.21,0.93c-2.31,0.65-4.8,0.28-6.83-0.93
		c-1.38-0.83-2.94-1.19-4.51-1.19c-1.58,0-3.13,0.46-4.52,1.19c-0.65,0.37-1.38,0.75-2.21,0.93c-2.31,0.65-4.8,0.28-6.82-0.93
		C128.42,223.8,128.05,223.61,127.59,223.44"/>
	<path class="st0" d="M170.72,230.35c-1.02,1.38-2.21,2.57-3.41,3.87c-4.52,4.51-10.05,7.92-15.94,9.95
		c-6-2.03-11.43-5.45-16.04-9.95c-1.2-1.2-2.31-2.49-3.42-3.87c1.2,0.18,2.49,0.18,3.78-0.19c0.75-0.18,1.48-0.55,2.13-0.91
		c1.38-0.75,2.85-1.2,4.51-1.2c1.57,0,3.14,0.37,4.52,1.2c2.03,1.19,4.52,1.47,6.82,0.91c0.75-0.18,1.48-0.55,2.13-0.91
		c1.38-0.75,2.85-1.2,4.51-1.2c1.58,0,3.14,0.37,4.52,1.2C166.57,230.35,168.69,230.71,170.72,230.35"/>
</g>
</svg>
