<?xml version="1.0" encoding="utf-8"?>
<!-- Generator: Adobe Illustrator 27.9.1, SVG Export Plug-In . SVG Version: 6.00 Build 0)  -->
<svg version="1.1" id="Layer_1" xmlns="http://www.w3.org/2000/svg" xmlns:xlink="http://www.w3.org/1999/xlink" x="0px" y="0px"
	 viewBox="0 0 500 500" style="enable-background:new 0 0 500 500;" xml:space="preserve">
<style type="text/css">
	.st0{fill:#CA2027;}
	.st1{fill-rule:evenodd;clip-rule:evenodd;fill:#FFFFFF;}
	.st2{fill-rule:evenodd;clip-rule:evenodd;fill:#2B3560;}
</style>
<g>
	<rect x="27.87" y="359.64" class="st0" width="444.25" height="19.95"/>
	<rect x="27.87" y="339.67" class="st1" width="444.25" height="19.97"/>
	<rect x="27.87" y="319.72" class="st0" width="444.25" height="19.95"/>
	<rect x="27.87" y="299.77" class="st1" width="444.25" height="19.95"/>
	<rect x="27.87" y="279.89" class="st0" width="444.25" height="19.95"/>
	<rect x="27.87" y="259.94" class="st1" width="444.25" height="19.95"/>
	<rect x="27.87" y="239.99" class="st0" width="444.25" height="19.95"/>
	<rect x="27.87" y="220.02" class="st1" width="444.25" height="19.97"/>
	<rect x="27.87" y="200.15" class="st0" width="444.25" height="19.95"/>
	<rect x="27.87" y="180.19" class="st1" width="444.25" height="19.97"/>
	<rect x="27.87" y="160.24" class="st0" width="444.25" height="19.95"/>
	<rect x="27.87" y="140.28" class="st1" width="444.25" height="19.95"/>
	<rect x="27.87" y="120.41" class="st0" width="444.25" height="19.95"/>
	<rect x="27.87" y="120.41" class="st2" width="202.86" height="139.53"/>
	<path class="st1" d="M46.19,146.27l-4.52,3.3l1.73-5.3l-4.5-3.2h5.54l1.74-5.3l1.73,5.3h5.46l-4.42,3.2l1.65,5.3L46.19,146.27z
		 M46.19,146.27"/>
	<path class="st1" d="M46.19,169.61l-4.52,3.22l1.73-5.2l-4.5-3.31h5.54l1.74-5.28l1.73,5.28h5.46l-4.42,3.31l1.65,5.2L46.19,169.61
		z M46.19,169.61"/>
	<path class="st1" d="M46.19,192.87l-4.52,3.29l1.73-5.3l-4.5-3.2h5.54l1.74-5.29l1.73,5.29h5.46l-4.42,3.2l1.65,5.3L46.19,192.87z
		 M46.19,192.87"/>
	<path class="st1" d="M46.19,216.21l-4.52,3.22l1.73-5.21l-4.5-3.31h5.54l1.74-5.28l1.73,5.28h5.46l-4.42,3.31l1.65,5.21
		L46.19,216.21z M46.19,216.21"/>
	<path class="st1" d="M46.19,239.46l-4.52,3.3l1.73-5.3l-4.5-3.3h5.54l1.74-5.2l1.73,5.2h5.46l-4.42,3.3l1.65,5.3L46.19,239.46z
		 M46.19,239.46"/>
	<path class="st1" d="M62.41,158.58l-4.51,3.22l1.73-5.21l-4.51-3.29h5.56l1.73-5.3l1.74,5.3h5.47l-4.43,3.29l1.64,5.21
		L62.41,158.58z M62.41,158.58"/>
	<path class="st1" d="M62.41,181.84l-4.51,3.3l1.73-5.28l-4.51-3.31h5.56l1.73-5.2l1.74,5.2h5.47l-4.43,3.31l1.64,5.28L62.41,181.84
		z M62.41,181.84"/>
	<path class="st1" d="M62.41,205.18l-4.51,3.22l1.73-5.2l-4.51-3.3h5.56l1.73-5.3l1.74,5.3h5.47l-4.43,3.3l1.64,5.2L62.41,205.18z
		 M62.41,205.18"/>
	<path class="st1" d="M62.41,228.44l-4.51,3.29l1.73-5.28l-4.51-3.31h5.56l1.73-5.21l1.74,5.21h5.47l-4.43,3.31l1.64,5.28
		L62.41,228.44z M62.41,228.44"/>
	<path class="st1" d="M78.8,146.27l-4.5,3.3l1.73-5.3l-4.51-3.2h5.56l1.73-5.3l1.73,5.3h5.56l-4.52,3.2l1.75,5.3L78.8,146.27z
		 M78.8,146.27"/>
	<path class="st1" d="M78.8,169.61l-4.5,3.22l1.73-5.2l-4.51-3.31h5.56l1.73-5.28l1.73,5.28h5.56l-4.52,3.31l1.75,5.2L78.8,169.61z
		 M78.8,169.61"/>
	<path class="st1" d="M78.8,192.87l-4.5,3.29l1.73-5.3l-4.51-3.2h5.56l1.73-5.29l1.73,5.29h5.56l-4.52,3.2l1.75,5.3L78.8,192.87z
		 M78.8,192.87"/>
	<path class="st1" d="M78.8,216.21l-4.5,3.22l1.73-5.21l-4.51-3.31h5.56l1.73-5.28l1.73,5.28h5.56l-4.52,3.31l1.75,5.21L78.8,216.21
		z M78.8,216.21"/>
	<path class="st1" d="M78.8,239.46l-4.5,3.3l1.73-5.3l-4.51-3.3h5.56l1.73-5.2l1.73,5.2h5.56l-4.52,3.3l1.75,5.3L78.8,239.46z
		 M78.8,239.46"/>
	<path class="st1" d="M95.03,158.58l-4.52,3.22l1.73-5.21l-4.51-3.29h5.54l1.74-5.3l1.73,5.3h5.56l-4.52,3.29l1.73,5.21
		L95.03,158.58z M95.03,158.58"/>
	<path class="st1" d="M95.03,181.84l-4.52,3.3l1.73-5.28l-4.51-3.31h5.54l1.74-5.2l1.73,5.2h5.56l-4.52,3.31l1.73,5.28L95.03,181.84
		z M95.03,181.84"/>
	<path class="st1" d="M95.03,205.18l-4.52,3.22l1.73-5.2l-4.51-3.3h5.54l1.74-5.3l1.73,5.3h5.56l-4.52,3.3l1.73,5.2L95.03,205.18z
		 M95.03,205.18"/>
	<path class="st1" d="M95.03,228.44l-4.52,3.29l1.73-5.28l-4.51-3.31h5.54l1.74-5.21l1.73,5.21h5.56l-4.52,3.31l1.73,5.28
		L95.03,228.44z M95.03,228.44"/>
	<path class="st1" d="M111.44,146.27l-4.43,3.3l1.73-5.3l-4.52-3.2h5.56l1.65-5.3l1.73,5.3h5.56l-4.52,3.2l1.73,5.3L111.44,146.27z
		 M111.44,146.27"/>
	<path class="st1" d="M111.44,169.61l-4.43,3.22l1.73-5.2l-4.52-3.31h5.56l1.65-5.28l1.73,5.28h5.56l-4.52,3.31l1.73,5.2
		L111.44,169.61z M111.44,169.61"/>
	<path class="st1" d="M111.44,192.87l-4.43,3.29l1.73-5.3l-4.52-3.2h5.56l1.65-5.29l1.73,5.29h5.56l-4.52,3.2l1.73,5.3
		L111.44,192.87z M111.44,192.87"/>
	<path class="st1" d="M111.44,216.21l-4.43,3.22l1.73-5.21l-4.52-3.31h5.56l1.65-5.28l1.73,5.28h5.56l-4.52,3.31l1.73,5.21
		L111.44,216.21z M111.44,216.21"/>
	<path class="st1" d="M111.44,239.46l-4.43,3.3l1.73-5.3l-4.52-3.3h5.56l1.65-5.2l1.73,5.2h5.56l-4.52,3.3l1.73,5.3L111.44,239.46z
		 M111.44,239.46"/>
	<path class="st1" d="M127.65,158.58l-4.43,3.22l1.66-5.21l-4.43-3.29h5.56l1.64-5.3l1.74,5.3h5.54l-4.51,3.29l1.73,5.21
		L127.65,158.58z M127.65,158.58"/>
	<path class="st1" d="M127.65,181.84l-4.43,3.3l1.66-5.28l-4.43-3.31h5.56l1.64-5.2l1.74,5.2h5.54l-4.51,3.31l1.73,5.28
		L127.65,181.84z M127.65,181.84"/>
	<path class="st1" d="M127.65,205.18l-4.43,3.22l1.66-5.2l-4.43-3.3h5.56l1.64-5.3l1.74,5.3h5.54l-4.51,3.3l1.73,5.2L127.65,205.18z
		 M127.65,205.18"/>
	<path class="st1" d="M127.65,228.44l-4.43,3.29l1.66-5.28l-4.43-3.31h5.56l1.64-5.21l1.74,5.21h5.54l-4.51,3.31l1.73,5.28
		L127.65,228.44z M127.65,228.44"/>
	<path class="st1" d="M144.14,146.27l-4.52,3.3l1.74-5.3l-4.52-3.2h5.56l1.73-5.3l1.73,5.3h5.47l-4.42,3.2l1.65,5.3L144.14,146.27z
		 M144.14,146.27"/>
	<path class="st1" d="M144.14,169.61l-4.52,3.22l1.74-5.2l-4.52-3.31h5.56l1.73-5.28l1.73,5.28h5.47l-4.42,3.31l1.65,5.2
		L144.14,169.61z M144.14,169.61"/>
	<path class="st1" d="M144.14,192.87l-4.52,3.29l1.74-5.3l-4.52-3.2h5.56l1.73-5.29l1.73,5.29h5.47l-4.42,3.2l1.65,5.3
		L144.14,192.87z M144.14,192.87"/>
	<path class="st1" d="M144.14,216.21l-4.52,3.22l1.74-5.21l-4.52-3.31h5.56l1.73-5.28l1.73,5.28h5.47l-4.42,3.31l1.65,5.21
		L144.14,216.21z M144.14,216.21"/>
	<path class="st1" d="M144.14,239.46l-4.52,3.3l1.74-5.3l-4.52-3.3h5.56l1.73-5.2l1.73,5.2h5.47l-4.42,3.3l1.65,5.3L144.14,239.46z
		 M144.14,239.46"/>
	<path class="st1" d="M160.38,158.58l-4.52,3.22l1.73-5.21l-4.5-3.29h5.54l1.75-5.3l1.64,5.3h5.56l-4.42,3.29l1.65,5.21
		L160.38,158.58z M160.38,158.58"/>
	<path class="st1" d="M160.38,181.84l-4.52,3.3l1.73-5.28l-4.5-3.31h5.54l1.75-5.2l1.64,5.2h5.56l-4.42,3.31l1.65,5.28
		L160.38,181.84z M160.38,181.84"/>
	<path class="st1" d="M160.38,205.18l-4.52,3.22l1.73-5.2l-4.5-3.3h5.54l1.75-5.3l1.64,5.3h5.56l-4.42,3.3l1.65,5.2L160.38,205.18z
		 M160.38,205.18"/>
	<path class="st1" d="M160.38,228.44l-4.52,3.29l1.73-5.28l-4.5-3.31h5.54l1.75-5.21l1.64,5.21h5.56l-4.42,3.31l1.65,5.28
		L160.38,228.44z M160.38,228.44"/>
	<path class="st1" d="M176.78,146.27l-4.52,3.3l1.73-5.3l-4.51-3.2h5.54l1.75-5.3l1.73,5.3h5.56l-4.52,3.2l1.73,5.3L176.78,146.27z
		 M176.78,146.27"/>
	<path class="st1" d="M176.78,169.61l-4.52,3.22l1.73-5.2l-4.51-3.31h5.54l1.75-5.28l1.73,5.28h5.56l-4.52,3.31l1.73,5.2
		L176.78,169.61z M176.78,169.61"/>
	<path class="st1" d="M176.78,192.87l-4.52,3.29l1.73-5.3l-4.51-3.2h5.54l1.75-5.29l1.73,5.29h5.56l-4.52,3.2l1.73,5.3
		L176.78,192.87z M176.78,192.87"/>
	<path class="st1" d="M176.78,216.21l-4.52,3.22l1.73-5.21l-4.51-3.31h5.54l1.75-5.28l1.73,5.28h5.56l-4.52,3.31l1.73,5.21
		L176.78,216.21z M176.78,216.21"/>
	<path class="st1" d="M176.78,239.46l-4.52,3.3l1.73-5.3l-4.51-3.3h5.54l1.75-5.2l1.73,5.2h5.56l-4.52,3.3l1.73,5.3L176.78,239.46z
		 M176.78,239.46"/>
	<path class="st1" d="M192.99,158.58l-4.5,3.22l1.73-5.21l-4.52-3.29h5.56l1.73-5.3l1.74,5.3h5.54l-4.51,3.29l1.74,5.21
		L192.99,158.58z M192.99,158.58"/>
	<path class="st1" d="M192.99,181.84l-4.5,3.3l1.73-5.28l-4.52-3.31h5.56l1.73-5.2l1.74,5.2h5.54l-4.51,3.31l1.74,5.28
		L192.99,181.84z M192.99,181.84"/>
	<path class="st1" d="M192.99,205.18l-4.5,3.22l1.73-5.2l-4.52-3.3h5.56l1.73-5.3l1.74,5.3h5.54l-4.51,3.3l1.74,5.2L192.99,205.18z
		 M192.99,205.18"/>
	<path class="st1" d="M192.99,228.44l-4.5,3.29l1.73-5.28l-4.52-3.31h5.56l1.73-5.21l1.74,5.21h5.54l-4.51,3.31l1.74,5.28
		L192.99,228.44z M192.99,228.44"/>
	<path class="st1" d="M209.39,146.27l-4.43,3.3l1.65-5.3l-4.42-3.2h5.54l1.65-5.3l1.73,5.3h5.56l-4.51,3.2l1.74,5.3L209.39,146.27z
		 M209.39,146.27"/>
	<path class="st1" d="M209.39,169.61l-4.43,3.22l1.65-5.2l-4.42-3.31h5.54l1.65-5.28l1.73,5.28h5.56l-4.51,3.31l1.74,5.2
		L209.39,169.61z M209.39,169.61"/>
	<path class="st1" d="M209.39,192.87l-4.43,3.29l1.65-5.3l-4.42-3.2h5.54l1.65-5.29l1.73,5.29h5.56l-4.51,3.2l1.74,5.3
		L209.39,192.87z M209.39,192.87"/>
	<path class="st1" d="M209.39,216.21l-4.43,3.22l1.65-5.21l-4.42-3.31h5.54l1.65-5.28l1.73,5.28h5.56l-4.51,3.31l1.74,5.21
		L209.39,216.21z M209.39,216.21"/>
	<path class="st1" d="M209.39,239.46l-4.43,3.3l1.65-5.3l-4.42-3.3h5.54l1.65-5.2l1.73,5.2h5.56l-4.51,3.3l1.74,5.3L209.39,239.46z
		 M209.39,239.46"/>
</g>
</svg>
