<?xml version="1.0" encoding="utf-8"?>
<!-- Generator: Adobe Illustrator 27.9.1, SVG Export Plug-In . SVG Version: 6.00 Build 0)  -->
<svg version="1.1" id="Layer_1" xmlns="http://www.w3.org/2000/svg" xmlns:xlink="http://www.w3.org/1999/xlink" x="0px" y="0px"
	 viewBox="0 0 500 500" style="enable-background:new 0 0 500 500;" xml:space="preserve">
<style type="text/css">
	.st0{fill:#FFFFFF;}
	.st1{fill-rule:evenodd;clip-rule:evenodd;fill:#D41F3A;}
</style>
<g>
	<rect x="18" y="114.66" class="st0" width="464" height="270.69"/>
	<path class="st1" d="M128.02,175.74c-0.27,4.98-0.72,9.87-1.46,14.68c-0.27,1.53-0.54,3.07-0.81,4.62
		c2.99-0.37,6.08-0.54,9.24-0.54c3.09,0,6.17,0.17,9.24,0.54c-0.27-1.55-0.54-3.09-0.81-4.62c-0.72-4.81-1.26-9.71-1.44-14.68
		c6.61,0.27,13.05,1.09,19.29,2.26c-0.36-2.99-0.54-6.06-0.54-9.24c0-3.17,0.19-6.16,0.54-9.24c-6.33,1.18-12.77,2-19.29,2.27
		c0.26-6.62,1.09-13.05,2.25-19.3c-2.99,0.37-6.06,0.55-9.24,0.55c-3.17,0-6.16-0.18-9.24-0.55c1.18,6.35,2,12.78,2.27,19.3
		c-6.62-0.27-13.05-1.09-19.31-2.27c0.37,2.99,0.55,6.08,0.55,9.24c0,3.09-0.18,6.17-0.55,9.24
		C114.97,176.82,121.49,176.01,128.02,175.74"/>
	<path class="st1" d="M358.12,175.74c-0.28,4.98-0.72,9.87-1.45,14.68c-0.28,1.53-0.55,3.07-0.82,4.62
		c2.99-0.37,6.08-0.54,9.24-0.54c3.09,0,6.18,0.17,9.25,0.54c-0.27-1.55-0.55-3.09-0.82-4.62c-0.72-4.81-1.26-9.71-1.44-14.68
		c6.61,0.27,13.05,1.09,19.39,2.26c-0.36-2.99-0.55-6.06-0.55-9.24c0-3.17,0.19-6.16,0.55-9.24c-6.34,1.18-12.78,2-19.39,2.27
		c0.36-6.62,1.09-13.05,2.26-19.3c-2.99,0.37-6.06,0.55-9.25,0.55c-3.17,0-6.16-0.18-9.24-0.55c1.18,6.35,2,12.78,2.27,19.3
		c-6.62-0.27-13.05-1.09-19.3-2.27c0.37,2.99,0.54,6.08,0.54,9.24c0,3.09-0.18,6.17-0.54,9.24
		C345.07,176.82,351.49,176.01,358.12,175.74"/>
	<path class="st1" d="M141.89,324.27c0.27-4.99,0.72-9.88,1.45-14.68c0.26-1.54,0.54-3.09,0.81-4.62c-2.99,0.37-6.08,0.54-9.24,0.54
		c-3.18,0-6.18-0.18-9.24-0.54c0.26,1.53,0.54,3.09,0.81,4.62c0.72,4.8,1.26,9.69,1.44,14.68c-6.61-0.37-13.05-1.09-19.31-2.27
		c0.37,2.99,0.54,6.08,0.54,9.25c0,3.08-0.17,6.17-0.54,9.24c6.35-1.17,12.78-1.98,19.31-2.26c-0.27,6.61-1.09,13.05-2.25,19.39
		c2.99-0.35,6.06-0.55,9.24-0.55c3.07,0,6.16,0.19,9.24,0.55c-1.18-6.34-2-12.78-2.27-19.39c6.62,0.36,13.05,1.09,19.3,2.26
		c-0.37-2.99-0.55-6.06-0.55-9.24c0-3.17,0.18-6.16,0.55-9.25C154.94,323.09,148.5,323.9,141.89,324.27"/>
	<path class="st1" d="M371.98,324.27c0.27-4.99,0.72-9.88,1.46-14.68c0.26-1.54,0.54-3.09,0.81-4.62c-2.99,0.37-6.08,0.54-9.24,0.54
		c-3.18,0-6.17-0.18-9.24-0.54c0.27,1.53,0.54,3.09,0.81,4.62c0.72,4.8,1.26,9.69,1.44,14.68c-6.61-0.37-13.05-1.09-19.3-2.27
		c0.37,2.99,0.55,6.08,0.55,9.25c0,3.08-0.18,6.17-0.55,9.24c6.35-1.17,12.78-1.98,19.3-2.26c-0.27,6.61-1.08,13.05-2.25,19.39
		c2.99-0.35,6.06-0.55,9.24-0.55c3.07,0,6.16,0.19,9.24,0.55c-1.18-6.34-2-12.78-2.27-19.39c6.62,0.36,13.05,1.09,19.4,2.26
		c-0.37-2.99-0.54-6.06-0.54-9.24c0-3.17,0.18-6.16,0.54-9.25C385.03,323.09,378.51,323.9,371.98,324.27"/>
	<rect x="222.72" y="114.66" class="st1" width="54.55" height="270.69"/>
	<rect x="18" y="222.68" class="st1" width="464" height="54.55"/>
</g>
</svg>
