<?xml version="1.0" encoding="utf-8"?>
<!-- Generator: Adobe Illustrator 27.9.1, SVG Export Plug-In . SVG Version: 6.00 Build 0)  -->
<svg version="1.1" id="Layer_1" xmlns="http://www.w3.org/2000/svg" xmlns:xlink="http://www.w3.org/1999/xlink" x="0px" y="0px"
	 viewBox="0 0 500 500" style="enable-background:new 0 0 500 500;" xml:space="preserve">
<style type="text/css">
	.st0{fill:#2C2E36;}
	.st1{fill:#FCFDFF;}
	.st2{fill:#FFFFFF;}
	.st3{fill:#221F1F;}
	.st4{fill:#535761;}
	.st5{fill:#424242;}
	.st6{fill:#DDDBD3;}
	.st7{fill:#FDFAE9;}
	.st8{fill:#EDECEC;}
	.st9{fill:#F3F4F5;}
	.st10{fill:#231F20;}
</style>
<g>
	<path class="st0" d="M80.91,197.72c1.5,0.08,2.64,1.35,2.57,2.85l-4.04,76.93c-0.08,1.49-1.35,2.64-2.85,2.56l-52.56-2.76
		c-1.5-0.08-2.64-1.35-2.57-2.85l4.04-76.93c0.08-1.5,1.35-2.64,2.85-2.56L80.91,197.72z"/>
	
		<rect x="3.59" y="235.24" transform="matrix(0.0524 -0.9986 0.9986 0.0524 -202.7731 257.6438)" class="st1" width="61.58" height="0.86"/>
	
		<rect x="29.31" y="246.55" transform="matrix(0.0524 -0.9986 0.9986 0.0524 -221.4705 266.5919)" class="st2" width="0.86" height="6.89"/>
	
		<rect x="30.84" y="217.49" transform="matrix(0.0524 -0.9986 0.9986 0.0524 -191.0067 240.5807)" class="st2" width="0.86" height="6.89"/>
	<path class="st3" d="M71.67,237.84c0.45-8.66-6.2-16.04-14.85-16.5c-8.66-0.45-16.04,6.19-16.5,14.85
		c-0.45,8.65,6.19,16.04,14.85,16.49C63.83,253.14,71.22,246.49,71.67,237.84z M42.44,236.3c0.39-7.49,6.78-13.24,14.27-12.85
		c7.49,0.39,13.24,6.78,12.85,14.27c-0.39,7.49-6.78,13.24-14.27,12.85C47.8,250.18,42.05,243.79,42.44,236.3z"/>
	<path class="st2" d="M56.81,221.63c-8.49-0.45-15.75,6.1-16.2,14.58c-0.45,8.48,6.09,15.75,14.58,16.19
		c8.49,0.45,15.75-6.09,16.2-14.58C71.83,229.34,65.29,222.07,56.81,221.63z M56.72,223.17c7.63,0.4,13.52,6.94,13.12,14.57
		c-0.4,7.63-6.94,13.52-14.57,13.11c-7.63-0.4-13.52-6.94-13.12-14.57C42.56,228.66,49.09,222.77,56.72,223.17z"/>
	<path class="st4" d="M77.38,277.39l4.04-76.93c0.02-0.36-0.26-0.66-0.61-0.68l-52.56-2.76c-0.27-0.01-0.51,0.14-0.62,0.37
		c11.95,4.35,22.2,12.64,29.61,23.42c8.77,0.67,15.47,8.23,15.01,17.05c-0.19,3.7-1.63,7.03-3.86,9.65
		c1.2,6.06,1.69,12.4,1.35,18.92c-0.2,3.8-0.67,7.52-1.4,11.12L76.7,278C77.05,278.02,77.36,277.75,77.38,277.39z"/>
	<path class="st5" d="M64.09,230.99c0.68,0.04,1.21,0.33,1.45,0.82c0.25,0.48,0.18,1.09-0.19,1.66l-0.77,1.18
		c1.1,2.77,2.05,5.64,2.82,8.59c0.91-1.66,1.48-3.53,1.59-5.54c0.32-6.15-3.71-11.53-9.39-13.17c1.23,2.06,2.37,4.2,3.39,6.41
		C63.68,230.97,64.09,230.99,64.09,230.99z"/>
	<path class="st3" d="M54.62,246.09c0.45,0.88,1.25,0.92,1.79,0.09l3.25-5.01c0.54-0.83,1.42-2.18,1.95-3.01l3.25-5.01
		c0.54-0.83,0.17-1.54-0.81-1.6l-5.96-0.31c-0.99-0.05-2.6-0.14-3.58-0.19l-5.97-0.31c-0.98-0.05-1.42,0.63-0.97,1.5l2.71,5.32
		c0.45,0.88,1.18,2.32,1.63,3.19L54.62,246.09z"/>
	<path class="st2" d="M64.79,232.2c-0.1-0.21-0.38-0.33-0.74-0.35l-15.51-0.81c-0.36-0.02-0.64,0.08-0.77,0.27
		c-0.13,0.19-0.1,0.49,0.07,0.82l2.71,5.32l4.34,8.52c0.17,0.33,0.39,0.52,0.62,0.53c0.23,0.01,0.47-0.16,0.67-0.46L64.64,233
		C64.84,232.7,64.89,232.4,64.79,232.2z"/>
	<path class="st2" d="M58.11,221.76c0.39,0.59,0.77,1.18,1.14,1.79c6.37,1.53,10.96,7.43,10.6,14.19c-0.13,2.42-0.87,4.66-2.07,6.58
		c0.16,0.68,0.32,1.36,0.46,2.04c1.83-2.38,2.98-5.32,3.15-8.54C71.81,229.78,65.95,222.84,58.11,221.76z"/>
	<path class="st6" d="M64.79,232.2c-0.1-0.21-0.38-0.33-0.74-0.35l-0.48-0.03c0.25,0.57,0.49,1.14,0.73,1.71l0.34-0.53
		C64.84,232.7,64.89,232.4,64.79,232.2z"/>
	<polygon class="st2" points="113.2,271.58 103.4,282.85 103.31,282.85 102.02,272.27 111.9,260.92 	"/>
	<polygon class="st2" points="107.82,227.63 97.95,238.98 96.64,228.32 106.52,216.97 	"/>
	<polygon class="st2" points="105.14,205.66 95.26,217.01 93.96,206.35 103.83,195 	"/>
	<polygon class="st2" points="110.51,249.6 100.63,260.96 99.33,250.3 109.21,238.95 	"/>
	<polygon class="st0" points="114.41,281.5 103.4,282.85 113.2,271.58 	"/>
	<polygon class="st0" points="111.9,260.92 102.02,272.27 100.63,260.96 110.51,249.6 	"/>
	<polygon class="st0" points="109.45,239.31 99.55,251.02 98.18,239.36 108.08,227.65 	"/>
	<polygon class="st0" points="106.52,216.97 96.64,228.32 95.26,217.01 105.14,205.66 	"/>
	<polygon class="st0" points="103.82,194.91 103.83,195 93.96,206.35 92.72,196.27 	"/>
	<g>
		<polygon class="st7" points="112.7,272.18 111.83,273.17 110.53,262.51 111.39,261.52 		"/>
		<polygon class="st7" points="110.01,250.2 109.15,251.2 107.84,240.54 108.71,239.54 		"/>
		<polygon class="st7" points="107.32,228.23 106.46,229.22 105.16,218.56 106.02,217.57 		"/>
		<polygon class="st8" points="104.63,206.26 103.77,207.25 102.47,196.58 103.33,195.59 		"/>
	</g>
	<g>
		<polygon class="st6" points="113.84,281.57 112.87,281.69 111.83,273.17 112.7,272.18 		"/>
		<polygon class="st6" points="111.39,261.52 110.53,262.51 109.15,251.2 110.01,250.2 		"/>
		<polygon class="st6" points="108.71,239.54 107.84,240.54 106.46,229.22 107.32,228.23 		"/>
		<polygon class="st6" points="106.02,217.57 105.16,218.56 103.77,207.25 104.63,206.26 		"/>
		<polygon class="st6" points="102.47,196.58 102.29,195.1 103.26,194.98 103.33,195.59 		"/>
	</g>
	<polygon class="st2" points="92.2,206.16 81.64,195.6 81.55,195.6 81,206.25 91.64,216.89 	"/>
	<polygon class="st2" points="89.88,250.38 79.24,239.74 78.67,250.46 89.31,261.11 	"/>
	<polygon class="st2" points="88.72,272.48 78.08,261.85 77.51,272.57 88.15,283.21 	"/>
	<polygon class="st2" points="91.04,228.27 80.4,217.63 79.83,228.35 90.47,238.99 	"/>
	<polygon class="st0" points="91.64,216.89 81,206.25 80.4,217.63 91.04,228.27 	"/>
	<polygon class="st0" points="90.47,238.99 79.83,228.35 79.24,239.74 89.88,250.38 	"/>
	<polygon class="st0" points="89.31,261.11 78.67,250.46 78.08,261.85 88.72,272.48 	"/>
	<polygon class="st0" points="88.15,283.3 88.15,283.21 77.51,272.57 76.98,282.71 	"/>
	<polygon class="st8" points="91.66,205.6 90.73,204.67 90.16,215.39 91.09,216.32 	"/>
	<polygon class="st7" points="90.49,227.71 89.56,226.78 89,237.5 89.93,238.43 	"/>
	<polygon class="st6" points="89.33,249.82 88.4,248.89 87.84,259.61 88.77,260.54 	"/>
	<polygon class="st7" points="88.17,271.92 87.24,270.99 86.68,281.72 87.61,282.65 	"/>
	<g>
		<polygon class="st6" points="91.09,216.32 90.16,215.39 89.56,226.78 90.49,227.71 		"/>
		<polygon class="st6" points="89.93,238.43 89,237.5 88.4,248.89 89.33,249.82 		"/>
		<polygon class="st6" points="88.77,260.54 87.84,259.61 87.24,270.99 88.17,271.92 		"/>
		<polygon class="st6" points="86.68,281.72 86.6,283.21 87.58,283.27 87.61,282.65 		"/>
	</g>
	<path class="st4" d="M104.99,201.92l-0.04-2.65c-0.03-2.28-2.09-4.24-4.57-4.37l-14.76-0.78c-2.56-0.13-4.74,1.66-4.86,4
		l-0.71,13.51c-0.12,2.34,1.86,4.35,4.41,4.49l1.38,0.07c1.8,0.09,4.32-0.45,5.88-1.27l0.17-0.09l10.22-7.97l-0.31,0.2
		C103.64,206.1,105.02,203.89,104.99,201.92z"/>
	<path class="st0" d="M102.83,199.28c-0.02-1.27-1.17-2.38-2.56-2.45l-14.76-0.78c-1.39-0.07-2.58,0.91-2.65,2.18l-0.71,13.51
		c-0.07,1.27,1.02,2.37,2.41,2.45l1.38,0.07c1.39,0.07,3.51-0.38,4.72-1.02l10.07-7.86c1.2-0.63,2.17-2.19,2.15-3.47L102.83,199.28z
		"/>
	<path class="st2" d="M98.84,202.6c-0.93-0.05-1.64-0.78-1.6-1.63c0.04-0.85,0.83-1.5,1.76-1.45c0.93,0.05,1.64,0.77,1.6,1.62
		C100.56,202,99.77,202.65,98.84,202.6z"/>
	<path class="st9" d="M86.21,201.94c-0.93-0.05-1.64-0.78-1.6-1.63c0.04-0.85,0.83-1.5,1.76-1.45c0.93,0.05,1.64,0.77,1.6,1.62
		C87.92,201.34,87.13,201.99,86.21,201.94z"/>
	<path class="st2" d="M85.67,212.14c-0.93-0.05-1.64-0.78-1.6-1.62c0.04-0.85,0.83-1.5,1.76-1.45c0.93,0.05,1.64,0.78,1.6,1.63
		C87.39,211.54,86.6,212.19,85.67,212.14z"/>
	
		<rect x="46.4" y="237.09" transform="matrix(0.0524 -0.9986 0.9986 0.0524 -164.3988 301.4701)" class="st2" width="60.52" height="0.55"/>
	<path class="st6" d="M99.17,201.64c-0.47-0.02-0.83-0.38-0.8-0.78c0.02-0.41,0.42-0.72,0.88-0.7c0.47,0.02,0.83,0.38,0.8,0.78
		C100.03,201.36,99.64,201.67,99.17,201.64z"/>
	<path class="st6" d="M86.56,200.83c-0.39-0.02-0.69-0.31-0.67-0.65c0.02-0.34,0.35-0.6,0.74-0.58c0.39,0.02,0.69,0.31,0.67,0.65
		C87.27,200.59,86.94,200.85,86.56,200.83z"/>
	<path class="st6" d="M86.04,211.11c-0.38-0.02-0.68-0.35-0.66-0.73c0.02-0.38,0.35-0.68,0.73-0.66c0.38,0.02,0.68,0.35,0.66,0.73
		C86.76,210.83,86.43,211.13,86.04,211.11z"/>
	<g>
		<path class="st10" d="M123.89,268.52V256.4h3.23v-33.07h-3.23v-12.05h20.13v45.12h3.23v12.12H123.89z"/>
		<path class="st10" d="M149.61,268.52V256.4h3.23v-33.07h-3.23v-12.05h20.13v45.12h3.23v12.12H149.61z"/>
		<path class="st10" d="M181.76,265.69c-2.62-2.52-3.93-6.77-3.93-12.75v-13.3h-3.23v-12.05c1.86,0,3.26-0.48,4.19-1.43
			c0.93-0.96,1.4-2.27,1.4-3.93v-3.31h15.58v8.67h9.92v12.05h-9.92v12.05c0,1.62,0.35,2.8,1.07,3.56c0.71,0.76,1.77,1.14,3.2,1.14
			c1.86,0,3.89-0.22,6.1-0.66v11.54c-1.37,0.54-3.22,1.04-5.55,1.51c-2.33,0.47-4.69,0.7-7.09,0.7
			C188.28,269.48,184.38,268.22,181.76,265.69z"/>
		<path class="st10" d="M257.26,256.4v12.05h-23.22V256.4h3.09v-12.05c0-1.62-0.34-2.8-1.03-3.56c-0.69-0.76-1.72-1.14-3.09-1.14
			c-2.94,0-4.41,1.57-4.41,4.7v12.05h3.09v12.05h-23.22V256.4h3.23v-33.07h-3.23v-12.05h20.13v22.04c1.81-2.25,3.77-3.94,5.88-5.07
			c2.11-1.13,4.56-1.69,7.35-1.69c4.07,0,7.12,1.27,9.15,3.82c2.03,2.55,3.05,6.05,3.05,10.51v15.5H257.26z"/>
		<path class="st10" d="M265.19,264c-3.92-3.65-5.88-8.98-5.88-15.98c0-7,1.96-12.33,5.88-15.98c3.92-3.65,9.36-5.47,16.31-5.47
			c6.91,0,11.89,1.8,14.95,5.4c3.06,3.6,4.59,8.07,4.59,13.41v5.29h-23.81v0.44c0,1.81,0.54,3.15,1.62,4
			c1.08,0.86,2.87,1.29,5.37,1.29c2.99,0,5.83-0.22,8.52-0.66c2.69-0.44,5.04-1,7.05-1.69v11.76c-1.72,0.93-4.23,1.78-7.53,2.54
			s-6.89,1.14-10.76,1.14C274.55,269.48,269.11,267.65,265.19,264z M285.77,242.58v-0.88c0-1.66-0.36-2.87-1.07-3.6
			c-0.71-0.73-1.78-1.1-3.2-1.1c-1.42,0-2.49,0.38-3.2,1.14c-0.71,0.76-1.07,1.95-1.07,3.56v0.88H285.77z"/>
		<path class="st10" d="M303.26,266.54v-10.88h11.9v0.73c0,2.35,1.49,3.53,4.48,3.53c2.65,0,3.97-0.91,3.97-2.72
			c0-0.98-0.38-1.71-1.14-2.2c-0.76-0.49-2.09-0.91-4.01-1.25l-3.67-0.66c-7.69-1.37-11.54-5.73-11.54-13.08
			c0-4.26,1.62-7.57,4.85-9.92c3.23-2.35,7.59-3.53,13.08-3.53c6.12,0,11.29,1.03,15.51,3.09v10.21h-11.17v-0.73
			c0-0.98-0.33-1.73-0.99-2.24c-0.66-0.51-1.63-0.77-2.9-0.77c-2.45,0-3.67,0.78-3.67,2.35c0,0.83,0.34,1.47,1.03,1.91
			c0.69,0.44,1.93,0.86,3.75,1.25l4.19,0.81c4.36,0.83,7.47,2.38,9.33,4.63c1.86,2.25,2.79,5.14,2.79,8.67
			c0,4.46-1.56,7.86-4.67,10.21c-3.11,2.35-7.53,3.53-13.26,3.53C314.94,269.48,308.99,268.5,303.26,266.54z"/>
		<path class="st10" d="M389.74,256.4v12.05h-20.13v-5.73c-3.53,4.51-7.94,6.76-13.23,6.76c-4.07,0-7.12-1.27-9.15-3.82
			c-2.03-2.55-3.05-6.05-3.05-10.51v-15.5h-3.23v-12.05h20.13v24.1c0,1.62,0.36,2.8,1.07,3.56c0.71,0.76,1.78,1.14,3.2,1.14
			c1.42,0,2.48-0.38,3.2-1.14c0.71-0.76,1.07-1.95,1.07-3.56v-12.05h-3.97v-12.05h20.87v28.8H389.74z"/>
		<path class="st10" d="M416.68,267.64c-1.94-1.22-3.52-2.62-4.74-4.19v5H391.8V256.4h3.23v-33.07h-3.23v-12.05h20.13v21.31
			c1.22-1.57,2.8-2.96,4.74-4.19c1.93-1.22,4.15-1.84,6.65-1.84c5,0,8.76,1.86,11.28,5.58c2.52,3.72,3.78,9.01,3.78,15.87
			c0,6.86-1.26,12.15-3.78,15.87c-2.52,3.72-6.28,5.58-11.28,5.58C420.83,269.48,418.61,268.86,416.68,267.64z M419.39,255.26
			c0.71-0.76,1.06-1.95,1.06-3.56v-7.35c0-1.62-0.36-2.8-1.06-3.56c-0.71-0.76-1.78-1.14-3.2-1.14c-1.42,0-2.49,0.38-3.2,1.14
			c-0.71,0.76-1.07,1.95-1.07,3.56v7.35c0,1.62,0.36,2.8,1.07,3.56c0.71,0.76,1.77,1.14,3.2,1.14
			C417.62,256.4,418.68,256.02,419.39,255.26z"/>
		<path class="st10" d="M440.45,266.54v-10.88h11.9v0.73c0,2.35,1.49,3.53,4.48,3.53c2.65,0,3.97-0.91,3.97-2.72
			c0-0.98-0.38-1.71-1.14-2.2c-0.76-0.49-2.09-0.91-4.01-1.25l-3.67-0.66c-7.69-1.37-11.54-5.73-11.54-13.08
			c0-4.26,1.62-7.57,4.85-9.92c3.23-2.35,7.59-3.53,13.08-3.53c6.12,0,11.29,1.03,15.51,3.09v10.21h-11.17v-0.73
			c0-0.98-0.33-1.73-0.99-2.24c-0.66-0.51-1.63-0.77-2.9-0.77c-2.45,0-3.67,0.78-3.67,2.35c0,0.83,0.34,1.47,1.03,1.91
			c0.69,0.44,1.93,0.86,3.75,1.25l4.19,0.81c4.36,0.83,7.47,2.38,9.33,4.63c1.86,2.25,2.79,5.14,2.79,8.67
			c0,4.46-1.56,7.86-4.67,10.21c-3.11,2.35-7.53,3.53-13.26,3.53C452.13,269.48,446.18,268.5,440.45,266.54z"/>
	</g>
</g>
</svg>
