<?xml version="1.0" encoding="utf-8"?>
<!-- Generator: Adobe Illustrator 27.9.1, SVG Export Plug-In . SVG Version: 6.00 Build 0)  -->
<svg version="1.1" id="Layer_1" xmlns="http://www.w3.org/2000/svg" xmlns:xlink="http://www.w3.org/1999/xlink" x="0px" y="0px"
	 viewBox="0 0 500 500" style="enable-background:new 0 0 500 500;" xml:space="preserve">
<style type="text/css">
	.st0{stroke:#231F20;stroke-width:3;stroke-miterlimit:10;}
</style>
<path class="st0" d="M463.23,41.8h-0.01c-2.55,0-4.62,2.07-4.62,4.62v8.26c0,7.31-5.93,13.23-13.23,13.23l-39.04,0
	c-7.31,0-13.23-5.93-13.23-13.23l0-8.26c0-2.55-2.07-4.62-4.62-4.62H110.54c-2.55,0-4.62,2.07-4.62,4.62l0,8.26
	c0,7.31-5.93,13.23-13.23,13.23l-39.04,0c-7.31,0-13.23-5.93-13.23-13.23l0-8.26c0-2.55-2.07-4.62-4.62-4.62h0
	c-4.96,0-9.01,4.05-9.01,9.01l0,397.69c0,4.97,4.03,9,9,9h0.01c2.55,0,4.62-2.07,4.62-4.62v-8.26c0-7.31,5.93-13.23,13.23-13.23
	h39.04c7.31,0,13.23,5.93,13.23,13.23v8.26c0,2.55,2.07,4.62,4.62,4.62h277.93c2.55,0,4.62-2.07,4.62-4.62v-8.26
	c0-7.31,5.93-13.23,13.23-13.23l39.04,0c7.31,0,13.23,5.93,13.23,13.23v8.26c0,2.55,2.07,4.62,4.62,4.62l0,0
	c4.98,0,9.01-4.03,9.01-9.01l0-397.69C472.22,45.83,468.2,41.8,463.23,41.8z M40.41,123.52l0-23.13c0-7.31,5.93-13.23,13.23-13.23
	l39.04,0c7.31,0,13.23,5.93,13.23,13.23l0,23.13c0,7.32-5.93,13.25-13.25,13.25H53.66C46.34,136.77,40.41,130.84,40.41,123.52z
	 M40.41,192.37l0-23.13c0-7.31,5.93-13.23,13.23-13.23l39.04,0c7.31,0,13.23,5.93,13.23,13.23v23.13c0,7.31-5.93,13.23-13.23,13.23
	H53.65C46.34,205.61,40.41,199.68,40.41,192.37z M40.41,261.22l0-23.14c0-7.31,5.93-13.23,13.23-13.23h39.04
	c7.31,0,13.23,5.93,13.23,13.23l0,23.14c0,7.31-5.93,13.23-13.23,13.23H53.65C46.34,274.46,40.41,268.53,40.41,261.22z
	 M40.41,330.07v-23.14c0-7.31,5.93-13.23,13.23-13.23h39.04c7.31,0,13.23,5.93,13.23,13.23v23.13c0,7.32-5.93,13.25-13.25,13.25
	H53.65C46.34,343.31,40.41,337.38,40.41,330.07z M92.68,412.14H53.65c-7.31,0-13.23-5.93-13.23-13.23v-23.13
	c0-7.31,5.93-13.23,13.23-13.23l39.04,0c7.31,0,13.23,5.93,13.23,13.23v23.13C105.92,406.22,99.99,412.14,92.68,412.14z
	 M378.95,380.6c0,35.25-28.57,63.82-63.82,63.82H183.86c-35.24,0-63.81-28.57-63.81-63.81l0-261.92c0-35.24,28.57-63.81,63.81-63.81
	l131.28,0c35.24,0,63.81,28.57,63.81,63.81L378.95,380.6z M458.59,375.78v23.13c0,7.31-5.93,13.23-13.23,13.23l-39.04,0
	c-7.31,0-13.23-5.93-13.23-13.23l0-23.13c0-7.31,5.93-13.23,13.23-13.23l39.04,0C452.67,362.55,458.59,368.47,458.59,375.78z
	 M458.59,306.93v23.13c0,7.32-5.93,13.25-13.25,13.25l-39.03,0c-7.31,0-13.23-5.93-13.23-13.23l0-23.14
	c0-7.31,5.93-13.23,13.23-13.23h39.04C452.67,293.7,458.59,299.62,458.59,306.93z M458.59,238.08l0,23.14
	c0,7.31-5.93,13.23-13.23,13.23l-39.04,0c-7.31,0-13.23-5.93-13.23-13.23l0-23.14c0-7.31,5.93-13.23,13.23-13.23l39.04,0
	C452.67,224.85,458.59,230.77,458.59,238.08z M458.59,169.24l0,23.13c0,7.31-5.93,13.23-13.23,13.23l-39.04,0
	c-7.31,0-13.23-5.93-13.23-13.23v-23.13c0-7.31,5.93-13.23,13.23-13.23l39.04,0C452.67,156.01,458.59,161.94,458.59,169.24z
	 M458.59,100.39l0,23.13c0,7.32-5.93,13.25-13.25,13.25l-39.03,0c-7.31,0-13.23-5.93-13.23-13.23v-23.14
	c0-7.31,5.93-13.23,13.23-13.23l39.04,0C452.67,87.16,458.59,93.09,458.59,100.39z"/>
</svg>
