<?xml version="1.0" encoding="utf-8"?>
<!-- Generator: Adobe Illustrator 27.9.1, SVG Export Plug-In . SVG Version: 6.00 Build 0)  -->
<svg version="1.1" id="Layer_1" xmlns="http://www.w3.org/2000/svg" xmlns:xlink="http://www.w3.org/1999/xlink" x="0px" y="0px"
	 viewBox="0 0 500 500" style="enable-background:new 0 0 500 500;" xml:space="preserve">
<style type="text/css">
	.st0{fill:#231F20;}
</style>
<g>
	<path class="st0" d="M133.95,363.09c-12.28-12.29-18.2-25.94-18.2-39.59c0-26.4,26.4-40.96,28.67-38.68
		c19.57,25.03,55.98,45.06,86.47,45.51c22.75,0.91,33.22-8.65,33.22-22.76c0-14.56-18.66-21.39-42.32-31.85
		c-30.49-13.2-66.9-31.86-66.9-81.46c0-45.05,29.58-83.74,95.57-89.65l1.82-8.65c5.91-26.85,18.66-40.5,38.68-40.5h6.37
		c19.11,0,34.13,13.65,28.22,40.5l-3.19,14.56c20.03,5.46,35.5,14.11,47.33,25.94c9.56,10.01,14.56,22.3,14.56,34.59
		c0,30.49-30.04,45.96-32.31,43.23c-19.57-26.85-50.06-45.06-79.64-45.51c-21.38,0-32.31,10.47-32.31,22.76
		c0,15.47,20.93,23.66,46.42,34.13c34.59,14.56,74.18,33.68,74.18,79.19c0,48.69-31.86,83.74-98.3,89.65l-2.27,9.56
		c-5.92,26.85-18.66,40.5-38.23,40.5h-6.37c-19.12,0-34.13-13.2-28.67-40.5l2.73-13.65C164.45,384.48,145.78,374.92,133.95,363.09z"
		/>
</g>
</svg>
