<?xml version="1.0" encoding="utf-8"?>
<!-- Generator: Adobe Illustrator 27.9.1, SVG Export Plug-In . SVG Version: 6.00 Build 0)  -->
<svg version="1.1" id="Layer_1" xmlns="http://www.w3.org/2000/svg" xmlns:xlink="http://www.w3.org/1999/xlink" x="0px" y="0px"
	 viewBox="0 0 500 500" style="enable-background:new 0 0 500 500;" xml:space="preserve">
<style type="text/css">
	.st0{fill:#D02029;}
	.st1{fill-rule:evenodd;clip-rule:evenodd;fill:#FFFFFF;}
</style>
<g>
	<rect x="18.68" y="115.05" class="st0" width="462.64" height="269.9"/>
	<path class="st1" d="M153.58,182.45c37.24,0,67.5,30.19,67.5,67.5c0,37.23-30.17,67.5-67.5,67.5c-37.22,0-67.49-30.19-67.49-67.5
		C86.18,212.73,116.37,182.45,153.58,182.45"/>
	<path class="st0" d="M170.48,196.01c29.82,0,53.95,24.22,53.95,53.95c0,29.82-24.13,53.94-53.95,53.94
		c-29.82,0-53.94-24.22-53.94-53.94C116.54,220.13,140.67,196.01,170.48,196.01"/>
	<path class="st1" d="M247.92,244.35l-37.32,5.6l32.07,10.4L247.92,244.35z M247.92,244.35"/>
	<path class="st1" d="M247.92,255.55l-37.32-5.6l32.07-10.4L247.92,255.55z M247.92,255.55"/>
	<path class="st1" d="M250.81,251.58l-16.89-33.7v33.7H250.81z M250.81,251.58"/>
	<path class="st1" d="M240.16,255.1l-6.23-37.22l19.87,27.29L240.16,255.1z M240.16,255.1"/>
	<path class="st1" d="M240.16,244.8l-6.23,37.23l19.87-27.3L240.16,244.8z M240.16,244.8"/>
	<path class="st1" d="M250.81,248.33l-16.89,33.71v-33.71H250.81z M250.81,248.33"/>
	<path class="st1" d="M244.76,256.55l26.92-26.39l-32.07,10.4L244.76,256.55z M244.76,256.55"/>
	<path class="st1" d="M238.16,247.51l33.52-17.35l-19.87,27.29L238.16,247.51z M238.16,247.51"/>
	<path class="st1" d="M238.16,252.39l33.52,17.35l-19.87-27.29L238.16,252.39z M238.16,252.39"/>
	<path class="st1" d="M244.76,243.35l26.92,26.39l-32.07-10.4L244.76,243.35z M244.76,243.35"/>
</g>
</svg>
